<?xml version="1.0" encoding="UTF-8" standalone="no"?>
<svg width="329px" height="49px" viewBox="0 0 329 49" version="1.1" xmlns="http://www.w3.org/2000/svg" xmlns:xlink="http://www.w3.org/1999/xlink">
    <!-- Generator: Sketch 49.3 (51167) - http://www.bohemiancoding.com/sketch -->
    <title>are getting married</title>
    <desc>Created with Sketch.</desc>
    <defs></defs>
    <g id="Page-1" stroke="none" stroke-width="1" fill="none" fill-rule="evenodd">
        <g id="Desktop-HD" transform="translate(-555.000000, -567.000000)" fill="#FFFFFF">
            <g id="Group" transform="translate(559.000000, 554.000000)">
                <path d="M11.6943359,29.9570312 C11.4664702,29.2083296 11.1002629,28.5939152 10.5957031,28.1137695 C10.0911433,27.6336239 9.594729,27.3935547 9.10644531,27.3935547 C8.79719897,27.3935547 8.39437097,27.625486 7.89794922,28.0893555 C7.40152747,28.553225 6.86849243,29.2083291 6.29882812,30.0546875 C4.96418604,32.0403745 3.82894348,34.38817 2.89306641,37.0981445 C1.95718933,39.808119 1.48925781,41.9443281 1.48925781,43.5068359 C1.48925781,44.1090525 1.57063721,44.576984 1.73339844,44.9106445 C1.89615967,45.2443051 2.11588403,45.4111328 2.39257812,45.4111328 C2.97851855,45.4111328 3.90217468,44.707201 5.16357422,43.2993164 C6.42497375,41.8914318 7.64973364,40.1377058 8.83789062,38.0380859 C9.16341309,37.4846978 9.73713782,36.2273861 10.559082,34.2661133 C11.3810262,32.3048405 12.1419236,30.6650457 12.8417969,29.3466797 L12.7441406,29.2001953 L11.6943359,29.9570312 Z M14.4042969,44.2392578 L14.5507812,45.3378906 C13.2486914,46.8027417 11.9222073,47.9949498 10.5712891,48.9145508 C9.22037085,49.8341517 8.1787146,50.2939453 7.44628906,50.2939453 C7.02310986,50.2939453 6.70166125,50.1433934 6.48193359,49.8422852 C6.26220593,49.5411769 6.15234375,49.0976592 6.15234375,48.5117188 C6.15234375,47.616532 6.35172327,46.4894274 6.75048828,45.1303711 C7.1492533,43.7713148 7.73111597,42.2454512 8.49609375,40.5527344 L8.30078125,40.5039062 C6.10350464,43.514989 4.02019214,45.9156812 2.05078125,47.7060547 C0.0813703613,49.4964282 -1.4160105,50.3916016 -2.44140625,50.3916016 C-2.97851831,50.3916016 -3.37320837,50.1718772 -3.62548828,49.7324219 C-3.87776819,49.2929666 -4.00390625,48.6012417 -4.00390625,47.6572266 C-4.00390625,46.127271 -3.70687146,44.4020278 -3.11279297,42.4814453 C-2.51871448,40.5608628 -1.6682998,38.5507917 -0.561523438,36.4511719 C0.431320068,34.61197 1.46890735,32.988451 2.55126953,31.5805664 C3.63363171,30.1726818 4.75259839,29.0130254 5.90820312,28.1015625 C7.08008398,27.1412712 8.40656812,26.3193394 9.88769531,25.6357422 C11.3688225,24.952145 12.3697891,24.6103516 12.890625,24.6103516 C13.2975281,24.6103516 13.7654596,24.826007 14.2944336,25.2573242 C14.8234076,25.6886415 15.2262356,26.2054006 15.5029297,26.8076172 C15.9586611,26.6285798 16.4428685,26.3559589 16.9555664,25.9897461 C17.4682643,25.6235333 17.7652991,25.4404297 17.8466797,25.4404297 C17.9280603,25.4404297 17.9972328,25.4607745 18.0541992,25.5014648 C18.1111656,25.5421552 18.1396484,25.6113276 18.1396484,25.7089844 C18.1396484,25.8554695 17.7815791,26.7099531 17.0654297,28.2724609 C16.3492803,29.8349688 15.714521,31.3079358 15.1611328,32.6914062 C13.9078713,35.702489 12.9679393,38.2211813 12.3413086,40.2475586 C11.7146779,42.2739359 11.4013672,43.7916616 11.4013672,44.8007812 C11.4013672,45.158856 11.4664707,45.4396149 11.5966797,45.6430664 C11.7268887,45.8465179 11.9140613,45.9482422 12.1582031,45.9482422 C12.4348972,45.9482422 12.7604148,45.8058282 13.1347656,45.5209961 C13.5091165,45.2361639 13.9322893,44.8089221 14.4042969,44.2392578 Z M21.3623047,28.0527344 C22.8759841,27.1087192 24.0641233,26.4047875 24.9267578,25.940918 C25.7893923,25.4770485 26.3346343,25.2451172 26.5625,25.2451172 C26.8391941,25.2451172 27.0507805,25.3916001 27.1972656,25.6845703 C27.3437507,25.9775405 27.4169922,26.4007134 27.4169922,26.9541016 C27.4169922,27.6214226 27.3396818,28.3945269 27.1850586,29.2734375 C27.0304354,30.1523481 26.8066421,31.1289009 26.5136719,32.203125 L26.7089844,32.3496094 C28.2714922,29.5501162 29.5450797,27.56039 30.5297852,26.3803711 C31.5144906,25.2003522 32.3730432,24.6103516 33.1054688,24.6103516 C33.6100286,24.6103516 34.0291324,24.8015931 34.362793,25.184082 C34.6964535,25.5665709 34.8632812,26.0589163 34.8632812,26.6611328 C34.8632812,27.5237673 34.6110051,28.5654236 34.1064453,29.7861328 C33.6018855,31.006842 32.8369192,32.4472573 31.8115234,34.1074219 L31.25,33.8388672 C31.4615896,33.1715461 31.5999346,32.7076836 31.6650391,32.4472656 C31.7301436,32.1868477 31.7626953,31.9671233 31.7626953,31.7880859 C31.7626953,31.26725 31.6569021,30.864422 31.4453125,30.5795898 C31.2337229,30.2947577 30.9407571,30.1523438 30.5664062,30.1523438 C29.8990852,30.1523438 29.125981,30.6487581 28.2470703,31.6416016 C27.3681597,32.6344451 26.5543657,33.9527913 25.8056641,35.5966797 C24.8942012,37.5823667 24.1333038,39.5720929 23.5229492,41.565918 C22.9125946,43.559743 22.6074219,44.8170547 22.6074219,45.3378906 C22.6074219,45.6634131 22.6806633,45.9116202 22.8271484,46.0825195 C22.9736335,46.2534188 23.18522,46.3388672 23.4619141,46.3388672 C23.6246753,46.3388672 23.8443997,46.2656257 24.1210938,46.1191406 C24.3977878,45.9726555 24.8290986,45.6796897 25.4150391,45.2402344 L25.4638672,46.2900391 C23.9501877,47.6735095 22.5382552,48.7639934 21.2280273,49.5615234 C19.9177994,50.3590535 18.9127639,50.7578125 18.2128906,50.7578125 C17.8059875,50.7578125 17.48047,50.6113296 17.2363281,50.3183594 C16.9921863,50.0253892 16.8701172,49.6347681 16.8701172,49.1464844 C16.8701172,48.7558574 17.0654277,47.9746152 17.4560547,46.8027344 C17.8466816,45.6308535 18.7825447,43.1325061 20.2636719,39.3076172 C21.1425825,37.0452361 21.7854797,35.1979238 22.1923828,33.765625 C22.5992859,32.3333262 22.8027344,31.1940146 22.8027344,30.3476562 C22.8027344,29.8268203 22.6928722,29.4158544 22.4731445,29.1147461 C22.2534169,28.8136378 21.9156924,28.6061204 21.4599609,28.4921875 L21.3623047,28.0527344 Z M39.2578125,33.6923828 C39.5182305,33.8063157 39.8315411,33.895833 40.1977539,33.9609375 C40.5639667,34.026042 40.9505188,34.0585938 41.3574219,34.0585938 C41.4713547,34.0585938 41.6178376,34.0504558 41.796875,34.0341797 C41.9759124,34.0179036 42.2526023,33.9853518 42.6269531,33.9365234 C43.408207,33.3180308 44.0348284,32.618168 44.5068359,31.8369141 C44.9788435,31.0556602 45.2148438,30.3395215 45.2148438,29.6884766 C45.2148438,29.216469 45.0846367,28.81771 44.8242188,28.4921875 C44.5638008,28.166665 44.2382832,28.0039062 43.8476562,28.0039062 C43.7174473,28.0039062 43.4977229,28.0527339 43.1884766,28.1503906 C43.1396482,28.1666667 43.0989585,28.1829426 43.0664062,28.1992188 C42.1874956,28.9316443 41.4306672,29.7495072 40.7958984,30.652832 C40.1611296,31.5561569 39.6484395,32.5693303 39.2578125,33.6923828 Z M43.5058594,41.3583984 L45.6542969,41.2119141 C44.7753862,43.6858848 43.2698674,45.8953353 41.1376953,47.840332 C39.0055232,49.7853287 37.2477283,50.7578125 35.8642578,50.7578125 C34.8225859,50.7578125 33.9599644,50.285812 33.2763672,49.3417969 C32.59277,48.3977817 32.2509766,47.2015046 32.2509766,45.7529297 C32.2509766,43.4905486 32.7799426,41.0369598 33.8378906,38.3920898 C34.8958386,35.7472198 36.2874263,33.4157002 38.0126953,31.3974609 C39.7054121,29.4117739 41.5161036,27.8330137 43.4448242,26.6611328 C45.3735448,25.489252 47.0784431,24.9033203 48.5595703,24.9033203 C49.1292346,24.9033203 49.5971661,25.0660791 49.9633789,25.3916016 C50.3295917,25.717124 50.5126953,26.1402969 50.5126953,26.6611328 C50.5126953,27.4261106 50.1586949,28.3456978 49.4506836,29.4199219 C48.7426722,30.494146 47.8108782,31.4869746 46.6552734,32.3984375 C45.141594,33.6028706 43.660489,34.5428026 42.2119141,35.2182617 C40.7633391,35.8937208 39.4449929,36.272135 38.2568359,36.3535156 C37.866209,37.2812546 37.5773121,38.2252556 37.3901367,39.1855469 C37.2029613,40.1458381 37.109375,41.1712185 37.109375,42.2617188 C37.109375,43.7102937 37.373858,44.8129845 37.902832,45.5698242 C38.431806,46.3266639 39.2008413,46.7050781 40.2099609,46.7050781 C40.3889983,46.7050781 40.5273433,46.7010092 40.625,46.6928711 C40.7226567,46.684733 40.8121741,46.6725261 40.8935547,46.65625 C41.4794951,46.0865857 41.9840474,45.3623091 42.4072266,44.4833984 C42.8304058,43.6044878 43.196613,42.5628315 43.5058594,41.3583984 Z M75.3417969,29.3955078 C75.1139312,28.6793584 74.8413102,28.1422544 74.5239258,27.7841797 C74.2065414,27.426105 73.8444031,27.2470703 73.4375,27.2470703 C73.0631492,27.2470703 72.5911487,27.5359672 72.0214844,28.1137695 C71.4518201,28.6915719 70.8414746,29.5012969 70.1904297,30.5429688 C68.8720637,32.691417 67.7937867,35.0066608 66.9555664,37.4887695 C66.1173461,39.9708783 65.6982422,41.9280527 65.6982422,43.3603516 C65.6982422,43.8486353 65.7755526,44.2270494 65.9301758,44.4956055 C66.084799,44.7641615 66.3085923,44.8984375 66.6015625,44.8984375 C67.7734434,44.8984375 69.2667552,43.5149878 71.081543,40.7480469 C72.8963307,37.981106 74.4466082,34.4655161 75.7324219,30.2011719 L76.7822266,28.9072266 L76.7333984,28.5898438 L75.3417969,29.3955078 Z M79.4921875,26.5878906 C79.7037771,26.4088533 79.9723291,26.1647151 80.2978516,25.8554688 C80.9977249,25.2207 81.4778633,24.9033203 81.7382813,24.9033203 C81.8033857,24.9033203 81.8603513,24.9318031 81.9091797,24.9887695 C81.9580081,25.045736 81.9824219,25.1149084 81.9824219,25.1962891 C81.9824219,25.2939458 81.5389042,26.4617401 80.6518555,28.699707 C79.7648068,30.937674 78.9143921,33.1552625 78.1005859,35.3525391 C77.1402947,37.9241665 76.0376039,41.0735491 74.7924805,44.8007812 C73.5473571,48.5280134 72.7132183,50.7740847 72.2900391,51.5390625 C71.7692031,52.5644583 70.7885814,53.8299078 69.3481445,55.3354492 C67.9077076,56.8409906 66.251637,58.3098887 64.3798828,59.7421875 C63.8590469,60.1490906 63.3260118,60.4705392 62.7807617,60.706543 C62.2355116,60.9425468 61.7919939,61.0605469 61.4501953,61.0605469 C60.6526653,61.0605469 59.9446646,60.7675811 59.3261719,60.1816406 C58.7076792,59.5957002 58.3984375,58.9039753 58.3984375,58.1064453 C58.3984375,57.2275347 58.6751274,56.37712 59.2285156,55.5551758 C59.7819038,54.7332316 60.8723877,53.6305408 62.5,52.2470703 L63.1347656,52.4912109 C62.8743477,53.028323 62.687175,53.4921855 62.5732422,53.8828125 C62.4593093,54.2734395 62.4023438,54.6477847 62.4023438,55.0058594 C62.4023438,55.7708372 62.6017233,56.4178033 63.0004883,56.9467773 C63.3992533,57.4757513 63.9160125,57.7727861 64.5507813,57.8378906 C65.3483113,57.3658831 66.333002,55.7708469 67.5048828,53.0527344 C68.6767637,50.3346218 69.9055925,46.7702043 71.1914063,42.359375 L71.09375,42.359375 C69.0917869,44.8821741 67.2810953,46.8596934 65.6616211,48.2919922 C64.0421469,49.724291 62.817387,50.4404297 61.9873047,50.4404297 C61.4339165,50.4404297 61.0229506,50.1678087 60.7543945,49.6225586 C60.4858385,49.0773085 60.3515625,48.2513076 60.3515625,47.1445312 C60.3515625,45.5169189 60.7747354,43.4702272 61.6210938,41.0043945 C62.4674521,38.5385619 63.5904878,36.1744905 64.9902344,33.9121094 C66.7317795,31.080064 68.7418506,28.7200615 71.0205078,26.8320312 C73.299165,24.944001 75.1546152,24 76.5869141,24 C77.0263694,24 77.4617491,24.1871726 77.8930664,24.5615234 C78.3243837,24.9358743 78.8574187,25.6113232 79.4921875,26.5878906 Z M86.6943359,33.6923828 C86.9547539,33.8063157 87.2680646,33.895833 87.6342773,33.9609375 C88.0004901,34.026042 88.3870422,34.0585938 88.7939453,34.0585938 C88.9078782,34.0585938 89.0543611,34.0504558 89.2333984,34.0341797 C89.4124358,34.0179036 89.6891257,33.9853518 90.0634766,33.9365234 C90.8447305,33.3180308 91.4713518,32.618168 91.9433594,31.8369141 C92.4153669,31.0556602 92.6513672,30.3395215 92.6513672,29.6884766 C92.6513672,29.216469 92.5211602,28.81771 92.2607422,28.4921875 C92.0003242,28.166665 91.6748066,28.0039062 91.2841797,28.0039062 C91.1539707,28.0039062 90.9342463,28.0527339 90.625,28.1503906 C90.5761716,28.1666667 90.5354819,28.1829426 90.5029297,28.1992188 C89.624019,28.9316443 88.8671907,29.7495072 88.2324219,30.652832 C87.5976531,31.5561569 87.0849629,32.5693303 86.6943359,33.6923828 Z M90.9423828,41.3583984 L93.0908203,41.2119141 C92.2119097,43.6858848 90.7063909,45.8953353 88.5742188,47.840332 C86.4420466,49.7853287 84.6842517,50.7578125 83.3007813,50.7578125 C82.2591094,50.7578125 81.3964878,50.285812 80.7128906,49.3417969 C80.0292935,48.3977817 79.6875,47.2015046 79.6875,45.7529297 C79.6875,43.4905486 80.2164661,41.0369598 81.2744141,38.3920898 C82.3323621,35.7472198 83.7239497,33.4157002 85.4492188,31.3974609 C87.1419355,29.4117739 88.9526271,27.8330137 90.8813477,26.6611328 C92.8100682,25.489252 94.5149666,24.9033203 95.9960938,24.9033203 C96.5657581,24.9033203 97.0336896,25.0660791 97.3999023,25.3916016 C97.7661151,25.717124 97.9492188,26.1402969 97.9492188,26.6611328 C97.9492188,27.4261106 97.5952184,28.3456978 96.887207,29.4199219 C96.1791957,30.494146 95.2474016,31.4869746 94.0917969,32.3984375 C92.5781174,33.6028706 91.0970125,34.5428026 89.6484375,35.2182617 C88.1998625,35.8937208 86.8815164,36.272135 85.6933594,36.3535156 C85.3027324,37.2812546 85.0138356,38.2252556 84.8266602,39.1855469 C84.6394847,40.1458381 84.5458984,41.1712185 84.5458984,42.2617188 C84.5458984,43.7102937 84.8103815,44.8129845 85.3393555,45.5698242 C85.8683295,46.3266639 86.6373647,46.7050781 87.6464844,46.7050781 C87.8255217,46.7050781 87.9638667,46.7010092 88.0615234,46.6928711 C88.1591802,46.684733 88.2486975,46.6725261 88.3300781,46.65625 C88.9160186,46.0865857 89.4205708,45.3623091 89.84375,44.4833984 C90.2669292,43.6044878 90.6331365,42.5628315 90.9423828,41.3583984 Z M105.639648,19.8984375 C106.469731,19.572915 107.320145,19.1945009 108.190918,18.7631836 C109.061691,18.3318663 109.944657,17.8476589 110.839844,17.3105469 C110.465493,18.4824277 110.030113,19.7560153 109.533691,21.1313477 C109.03727,22.5066801 108.422855,24.1139231 107.69043,25.953125 L113.037109,25.953125 L110.03418,28.1503906 L106.884766,28.1015625 C106.087236,30.6894661 104.996752,33.7818831 103.613281,37.3789062 C102.229811,40.9759294 101.538086,43.2138628 101.538086,44.0927734 C101.538086,44.6136094 101.615396,45.0164374 101.77002,45.3012695 C101.924643,45.5861017 102.156574,45.7692053 102.46582,45.8505859 C103.116865,45.2646455 103.702797,44.6298862 104.223633,43.9462891 C104.744469,43.2626919 105.216469,42.5302773 105.639648,41.7490234 L106.323242,42.8964844 C104.663078,45.354179 103.100593,47.2788016 101.635742,48.6704102 C100.170891,50.0620187 98.982752,50.7578125 98.0712891,50.7578125 C97.4853486,50.7578125 96.9889343,50.4445018 96.5820313,49.8178711 C96.1751282,49.1912404 95.9716797,48.3815154 95.9716797,47.3886719 C95.9716797,46.0540298 96.874991,43.1162336 98.6816406,38.5751953 C99.0559915,37.6474563 99.3408193,36.9394556 99.5361328,36.4511719 C99.7477224,35.9140598 100.03255,35.1735073 100.390625,34.2294922 C101.54623,31.2672378 102.124023,29.6396499 102.124023,29.3466797 C102.124023,29.0374333 101.965334,28.7159847 101.647949,28.3823242 C101.330565,28.0486637 100.838219,27.6865254 100.170898,27.2958984 L102.026367,25.9042969 L103.881836,26.0019531 C104.093426,24.9602813 104.418943,23.7517972 104.858398,22.3764648 C105.297854,21.0011324 105.558268,20.1751316 105.639648,19.8984375 Z M119.995117,19.8984375 C120.825199,19.572915 121.675614,19.1945009 122.546387,18.7631836 C123.417159,18.3318663 124.300126,17.8476589 125.195312,17.3105469 C124.820962,18.4824277 124.385582,19.7560153 123.88916,21.1313477 C123.392738,22.5066801 122.778324,24.1139231 122.045898,25.953125 L127.392578,25.953125 L124.389648,28.1503906 L121.240234,28.1015625 C120.442704,30.6894661 119.35222,33.7818831 117.96875,37.3789062 C116.58528,40.9759294 115.893555,43.2138628 115.893555,44.0927734 C115.893555,44.6136094 115.970865,45.0164374 116.125488,45.3012695 C116.280111,45.5861017 116.512043,45.7692053 116.821289,45.8505859 C117.472334,45.2646455 118.058266,44.6298862 118.579102,43.9462891 C119.099937,43.2626919 119.571938,42.5302773 119.995117,41.7490234 L120.678711,42.8964844 C119.018546,45.354179 117.456062,47.2788016 115.991211,48.6704102 C114.52636,50.0620187 113.338221,50.7578125 112.426758,50.7578125 C111.840817,50.7578125 111.344403,50.4445018 110.9375,49.8178711 C110.530597,49.1912404 110.327148,48.3815154 110.327148,47.3886719 C110.327148,46.0540298 111.23046,43.1162336 113.037109,38.5751953 C113.41146,37.6474563 113.696288,36.9394556 113.891602,36.4511719 C114.103191,35.9140598 114.388019,35.1735073 114.746094,34.2294922 C115.901698,31.2672378 116.479492,29.6396499 116.479492,29.3466797 C116.479492,29.0374333 116.320802,28.7159847 116.003418,28.3823242 C115.686034,28.0486637 115.193688,27.6865254 114.526367,27.2958984 L116.381836,25.9042969 L118.237305,26.0019531 C118.448894,24.9602813 118.774412,23.7517972 119.213867,22.3764648 C119.653323,21.0011324 119.913737,20.1751316 119.995117,19.8984375 Z M131.982422,19.6542969 C132.617191,19.1171848 133.227536,18.5434601 133.813477,17.9331055 C134.399417,17.3227509 134.977211,16.6595088 135.546875,15.9433594 C136.425786,16.2200535 137.272131,16.4275709 138.085938,16.565918 C138.899744,16.704265 139.697262,16.7815754 140.478516,16.7978516 C140.022784,17.8883518 139.286301,18.7713182 138.269043,19.4467773 C137.251785,20.1222365 136.173508,20.4599609 135.03418,20.4599609 C134.497068,20.4599609 133.980308,20.3948574 133.483887,20.2646484 C132.987465,20.1344395 132.486982,19.930991 131.982422,19.6542969 Z M130.737305,27.4912109 C132.023118,26.9052705 133.268223,26.2867871 134.472656,25.6357422 C135.677089,24.9846973 136.303711,24.6591797 136.352539,24.6591797 C136.43392,24.6591797 136.490885,24.6713866 136.523438,24.6958008 C136.55599,24.720215 136.580404,24.7731116 136.59668,24.8544922 C136.59668,24.9195967 135.9253,26.3803568 134.58252,29.2368164 C133.239739,32.093276 131.990566,35.051417 130.834961,38.1113281 C129.842117,40.7317839 129.203289,42.5058547 128.918457,43.4335938 C128.633625,44.3613328 128.491211,45.0530576 128.491211,45.5087891 C128.491211,45.769207 128.552245,45.9889314 128.674316,46.1679688 C128.796387,46.3470061 128.955077,46.4446614 129.150391,46.4609375 C129.508465,46.4609375 129.943845,46.1516958 130.456543,45.5332031 C130.969241,44.9147104 131.534828,44.0195371 132.15332,42.8476562 L131.396484,46.4121094 C129.378245,47.9583411 127.836106,49.0610319 126.77002,49.7202148 C125.703933,50.3793978 124.943036,50.7089844 124.487305,50.7089844 C124.064125,50.7089844 123.718263,50.5177428 123.449707,50.1352539 C123.181151,49.752765 123.046875,49.2604197 123.046875,48.6582031 C123.046875,47.6490835 124.031566,44.7804598 126.000977,40.0522461 C127.970387,35.3240323 129.549148,31.1370625 130.737305,27.4912109 Z M138.647461,49 C137.735998,49.0976567 136.873376,49.2522776 136.05957,49.4638672 C135.245764,49.6754568 134.47266,49.9358708 133.740234,50.2451172 C134.488936,48.1617734 135.555006,45.3134946 136.938477,41.7001953 C140.014664,33.6760667 141.552734,28.4270957 141.552734,25.953125 C142.464197,25.7089832 143.489578,25.3631207 144.628906,24.9155273 C145.768235,24.467934 146.45996,24.2441406 146.704102,24.2441406 C146.866863,24.2441406 146.988932,24.3011062 147.070312,24.4150391 C147.151693,24.5289719 147.192383,24.6917307 147.192383,24.9033203 C147.192383,25.7171265 146.366382,28.1015427 144.714355,32.0566406 C143.062329,36.0117385 141.739914,39.3727075 140.74707,42.1396484 L141.088867,42.2617188 C142.521166,39.7389197 144.201651,37.2161584 146.130371,34.6933594 C148.059092,32.1705603 150.366198,29.5094541 153.051758,26.7099609 C155.297863,25.6357368 156.758623,24.9562189 157.434082,24.6713867 C158.109541,24.3865546 158.561197,24.2441406 158.789062,24.2441406 C158.951824,24.2441406 159.077962,24.3051752 159.16748,24.4272461 C159.256999,24.549317 159.301758,24.7242827 159.301758,24.9521484 C159.301758,25.5380889 158.308929,27.9062292 156.323242,32.0566406 L155.908203,32.9599609 C154.654942,35.5478645 153.666182,37.8468324 152.941895,39.8569336 C152.217607,41.8670348 151.855469,43.2789673 151.855469,44.0927734 C151.855469,44.6136094 151.953124,45.0123684 152.148438,45.2890625 C152.343751,45.5657566 152.628579,45.7041016 153.00293,45.7041016 C153.165691,45.7041016 153.361001,45.6715498 153.588867,45.6064453 C153.816733,45.5413408 154.036457,45.4599614 154.248047,45.3623047 L154.248047,46.1435547 C153.662106,46.4853533 152.85645,46.9573538 151.831055,47.5595703 C148.982733,49.2197349 147.371421,50.0498047 146.99707,50.0498047 C146.622719,50.0498047 146.313478,49.8870459 146.069336,49.5615234 C145.825194,49.236001 145.703125,48.8128281 145.703125,48.2919922 C145.703125,47.6409473 145.955401,46.6318428 146.459961,45.2646484 C146.964521,43.8974541 147.859694,41.8385554 149.145508,39.0878906 C149.47103,38.4205696 149.902341,37.5091204 150.439453,36.3535156 C151.643886,33.8144404 152.246094,32.3170596 152.246094,31.8613281 C152.246094,31.6171863 152.189128,31.4300137 152.075195,31.2998047 C151.961262,31.1695957 151.806642,31.1044922 151.611328,31.1044922 C150.520828,31.1044922 148.681654,32.8297354 146.09375,36.2802734 C143.505846,39.7308115 141.023775,43.970678 138.647461,49 Z M171.850586,29.3955078 C171.62272,28.6793584 171.350099,28.1422544 171.032715,27.7841797 C170.71533,27.426105 170.353192,27.2470703 169.946289,27.2470703 C169.571938,27.2470703 169.099938,27.5359672 168.530273,28.1137695 C167.960609,28.6915719 167.350264,29.5012969 166.699219,30.5429688 C165.380853,32.691417 164.302576,35.0066608 163.464355,37.4887695 C162.626135,39.9708783 162.207031,41.9280527 162.207031,43.3603516 C162.207031,43.8486353 162.284342,44.2270494 162.438965,44.4956055 C162.593588,44.7641615 162.817381,44.8984375 163.110352,44.8984375 C164.282232,44.8984375 165.775544,43.5149878 167.590332,40.7480469 C169.40512,37.981106 170.955397,34.4655161 172.241211,30.2011719 L173.291016,28.9072266 L173.242188,28.5898438 L171.850586,29.3955078 Z M176.000977,26.5878906 C176.212566,26.4088533 176.481118,26.1647151 176.806641,25.8554688 C177.506514,25.2207 177.986652,24.9033203 178.24707,24.9033203 C178.312175,24.9033203 178.36914,24.9318031 178.417969,24.9887695 C178.466797,25.045736 178.491211,25.1149084 178.491211,25.1962891 C178.491211,25.2939458 178.047693,26.4617401 177.160645,28.699707 C176.273596,30.937674 175.423181,33.1552625 174.609375,35.3525391 C173.649084,37.9241665 172.546393,41.0735491 171.30127,44.8007812 C170.056146,48.5280134 169.222007,50.7740847 168.798828,51.5390625 C168.277992,52.5644583 167.29737,53.8299078 165.856934,55.3354492 C164.416497,56.8409906 162.760426,58.3098887 160.888672,59.7421875 C160.367836,60.1490906 159.834801,60.4705392 159.289551,60.706543 C158.744301,60.9425468 158.300783,61.0605469 157.958984,61.0605469 C157.161454,61.0605469 156.453454,60.7675811 155.834961,60.1816406 C155.216468,59.5957002 154.907227,58.9039753 154.907227,58.1064453 C154.907227,57.2275347 155.183917,56.37712 155.737305,55.5551758 C156.290693,54.7332316 157.381177,53.6305408 159.008789,52.2470703 L159.643555,52.4912109 C159.383137,53.028323 159.195964,53.4921855 159.082031,53.8828125 C158.968098,54.2734395 158.911133,54.6477847 158.911133,55.0058594 C158.911133,55.7708372 159.110512,56.4178033 159.509277,56.9467773 C159.908042,57.4757513 160.424802,57.7727861 161.05957,57.8378906 C161.8571,57.3658831 162.841791,55.7708469 164.013672,53.0527344 C165.185553,50.3346218 166.414382,46.7702043 167.700195,42.359375 L167.602539,42.359375 C165.600576,44.8821741 163.789884,46.8596934 162.17041,48.2919922 C160.550936,49.724291 159.326176,50.4404297 158.496094,50.4404297 C157.942706,50.4404297 157.53174,50.1678087 157.263184,49.6225586 C156.994628,49.0773085 156.860352,48.2513076 156.860352,47.1445312 C156.860352,45.5169189 157.283524,43.4702272 158.129883,41.0043945 C158.976241,38.5385619 160.099277,36.1744905 161.499023,33.9121094 C163.240569,31.080064 165.25064,28.7200615 167.529297,26.8320312 C169.807954,24.944001 171.663404,24 173.095703,24 C173.535158,24 173.970538,24.1871726 174.401855,24.5615234 C174.833173,24.9358743 175.366208,25.6113232 176.000977,26.5878906 Z M189.038086,50.2451172 C191.398124,44.1252949 193.147781,39.1855657 194.287109,35.4257812 C195.426438,31.6659968 195.996094,28.9886147 195.996094,27.3935547 L195.996094,26.9785156 C195.963542,26.7994783 195.947266,26.6529954 195.947266,26.5390625 L196.826172,26.1240234 C199.26759,24.9358665 200.626626,24.3417969 200.90332,24.3417969 C201.131186,24.3417969 201.293945,24.4069004 201.391602,24.5371094 C201.489258,24.6673184 201.538086,24.8707668 201.538086,25.1474609 C201.538086,26.1240283 200.77312,28.6630654 199.243164,32.7646484 C197.973626,36.1663582 196.97266,38.9576714 196.240234,41.1386719 L196.655273,41.3583984 C198.185229,38.5426292 199.719231,35.9344196 201.257324,33.5336914 C202.795418,31.1329633 204.361971,28.9072368 205.957031,26.8564453 C206.331382,26.6611318 206.860348,26.3925798 207.543945,26.0507812 C209.969088,24.8463481 211.336261,24.2441406 211.645508,24.2441406 C211.808269,24.2441406 211.950683,24.3092441 212.072754,24.4394531 C212.194825,24.5696621 212.255859,24.7405588 212.255859,24.9521484 C212.255859,25.4567083 211.421721,27.7678831 209.753418,31.8857422 C208.085115,36.0036013 206.632493,39.9098123 205.395508,43.6044922 L205.786133,43.8486328 C206.290693,43.083655 207.031245,41.9362056 208.007813,40.40625 C212.255881,33.8144202 215.551746,29.1106912 217.895508,26.2949219 C218.383792,26.0345039 219.018551,25.6845725 219.799805,25.2451172 C221.215827,24.4475872 222.013345,24.0488281 222.192383,24.0488281 C222.37142,24.0488281 222.526041,24.1139316 222.65625,24.2441406 C222.786459,24.3743496 222.851563,24.5289705 222.851563,24.7080078 C222.851563,25.6845752 221.899424,28.5165781 219.995117,33.2041016 L219.702148,33.9609375 C218.627924,36.5488411 217.810061,38.6809812 217.248535,40.3574219 C216.687009,42.0338625 216.40625,43.1650361 216.40625,43.7509766 C216.40625,44.2229841 216.499836,44.5729155 216.687012,44.8007812 C216.874187,45.028647 217.163084,45.1425781 217.553711,45.1425781 C217.700196,45.1425781 217.871093,45.1181643 218.066406,45.0693359 C218.26172,45.0205076 218.473306,44.9472661 218.701172,44.8496094 L218.847656,45.5576172 C216.552723,47.1526772 214.839687,48.2919888 213.708496,48.9755859 C212.577306,49.6591831 211.857098,50.0009766 211.547852,50.0009766 C211.206053,50.0009766 210.937501,49.8544937 210.742188,49.5615234 C210.546874,49.2685532 210.449219,48.8616562 210.449219,48.3408203 C210.449219,47.4130813 211.197909,45.2483894 212.695313,41.8466797 C213.151044,40.8212839 213.500975,40.0237659 213.745117,39.4541016 C214.591476,37.5009668 215.270994,35.8164133 215.783691,34.4003906 C216.296389,32.9843679 216.552734,32.1136084 216.552734,31.7880859 C216.552734,31.6090486 216.512045,31.4666346 216.430664,31.3608398 C216.349283,31.255045 216.235352,31.2021484 216.088867,31.2021484 C215.584307,31.2021484 214.221203,32.8093915 211.999512,36.0239258 C209.777821,39.2384601 207.259129,43.2952229 204.443359,48.1943359 C203.72721,48.47103 202.742519,48.8413063 201.489258,49.3051758 C200.235996,49.7690453 199.405927,50.082356 198.999023,50.2451172 C199.959315,47.575833 201.220695,44.2067261 202.783203,40.1376953 C204.654957,35.2223062 205.59082,32.3414756 205.59082,31.4951172 C205.59082,31.2835276 205.558269,31.1411136 205.493164,31.0678711 C205.42806,30.9946285 205.297853,30.9580078 205.102539,30.9580078 C204.38639,30.9580078 202.982595,32.6181475 200.891113,35.9384766 C198.799631,39.2588057 196.687836,43.3440513 194.555664,48.1943359 C193.69303,48.4873062 192.801925,48.8046858 191.882324,49.1464844 C190.962723,49.488283 190.014653,49.8544902 189.038086,50.2451172 Z M236.450195,29.9570312 C236.22233,29.2083296 235.856122,28.5939152 235.351562,28.1137695 C234.847003,27.6336239 234.350588,27.3935547 233.862305,27.3935547 C233.553058,27.3935547 233.15023,27.625486 232.653809,28.0893555 C232.157387,28.553225 231.624352,29.2083291 231.054688,30.0546875 C229.720045,32.0403745 228.584803,34.38817 227.648926,37.0981445 C226.713049,39.808119 226.245117,41.9443281 226.245117,43.5068359 C226.245117,44.1090525 226.326497,44.576984 226.489258,44.9106445 C226.652019,45.2443051 226.871743,45.4111328 227.148438,45.4111328 C227.734378,45.4111328 228.658034,44.707201 229.919434,43.2993164 C231.180833,41.8914318 232.405593,40.1377058 233.59375,38.0380859 C233.919272,37.4846978 234.492997,36.2273861 235.314941,34.2661133 C236.136886,32.3048405 236.897783,30.6650457 237.597656,29.3466797 L237.5,29.2001953 L236.450195,29.9570312 Z M239.160156,44.2392578 L239.306641,45.3378906 C238.004551,46.8027417 236.678067,47.9949498 235.327148,48.9145508 C233.97623,49.8341517 232.934574,50.2939453 232.202148,50.2939453 C231.778969,50.2939453 231.457521,50.1433934 231.237793,49.8422852 C231.018065,49.5411769 230.908203,49.0976592 230.908203,48.5117188 C230.908203,47.616532 231.107583,46.4894274 231.506348,45.1303711 C231.905113,43.7713148 232.486975,42.2454512 233.251953,40.5527344 L233.056641,40.5039062 C230.859364,43.514989 228.776052,45.9156812 226.806641,47.7060547 C224.83723,49.4964282 223.339849,50.3916016 222.314453,50.3916016 C221.777341,50.3916016 221.382651,50.1718772 221.130371,49.7324219 C220.878091,49.2929666 220.751953,48.6012417 220.751953,47.6572266 C220.751953,46.127271 221.048988,44.4020278 221.643066,42.4814453 C222.237145,40.5608628 223.08756,38.5507917 224.194336,36.4511719 C225.187179,34.61197 226.224767,32.988451 227.307129,31.5805664 C228.389491,30.1726818 229.508458,29.0130254 230.664063,28.1015625 C231.835943,27.1412712 233.162427,26.3193394 234.643555,25.6357422 C236.124682,24.952145 237.125648,24.6103516 237.646484,24.6103516 C238.053387,24.6103516 238.521319,24.826007 239.050293,25.2573242 C239.579267,25.6886415 239.982095,26.2054006 240.258789,26.8076172 C240.714521,26.6285798 241.198728,26.3559589 241.711426,25.9897461 C242.224124,25.6235333 242.521158,25.4404297 242.602539,25.4404297 C242.68392,25.4404297 242.753092,25.4607745 242.810059,25.5014648 C242.867025,25.5421552 242.895508,25.6113276 242.895508,25.7089844 C242.895508,25.8554695 242.537438,26.7099531 241.821289,28.2724609 C241.10514,29.8349688 240.47038,31.3079358 239.916992,32.6914062 C238.663731,35.702489 237.723799,38.2211813 237.097168,40.2475586 C236.470537,42.2739359 236.157227,43.7916616 236.157227,44.8007812 C236.157227,45.158856 236.22233,45.4396149 236.352539,45.6430664 C236.482748,45.8465179 236.669921,45.9482422 236.914063,45.9482422 C237.190757,45.9482422 237.516274,45.8058282 237.890625,45.5209961 C238.264976,45.2361639 238.688149,44.8089221 239.160156,44.2392578 Z M246.118164,28.0527344 C247.631844,27.1087192 248.819983,26.4047875 249.682617,25.940918 C250.545252,25.4770485 251.090494,25.2451172 251.318359,25.2451172 C251.595053,25.2451172 251.80664,25.3916001 251.953125,25.6845703 C252.09961,25.9775405 252.172852,26.4007134 252.172852,26.9541016 C252.172852,27.6214226 252.095541,28.3945269 251.940918,29.2734375 C251.786295,30.1523481 251.562501,31.1289009 251.269531,32.203125 L251.464844,32.3496094 C253.027352,29.5501162 254.300939,27.56039 255.285645,26.3803711 C256.27035,25.2003522 257.128903,24.6103516 257.861328,24.6103516 C258.365888,24.6103516 258.784992,24.8015931 259.118652,25.184082 C259.452313,25.5665709 259.619141,26.0589163 259.619141,26.6611328 C259.619141,27.5237673 259.366865,28.5654236 258.862305,29.7861328 C258.357745,31.006842 257.592779,32.4472573 256.567383,34.1074219 L256.005859,33.8388672 C256.217449,33.1715461 256.355794,32.7076836 256.420898,32.4472656 C256.486003,32.1868477 256.518555,31.9671233 256.518555,31.7880859 C256.518555,31.26725 256.412761,30.864422 256.201172,30.5795898 C255.989582,30.2947577 255.696616,30.1523438 255.322266,30.1523438 C254.654945,30.1523438 253.88184,30.6487581 253.00293,31.6416016 C252.124019,32.6344451 251.310225,33.9527913 250.561523,35.5966797 C249.650061,37.5823667 248.889163,39.5720929 248.278809,41.565918 C247.668454,43.559743 247.363281,44.8170547 247.363281,45.3378906 C247.363281,45.6634131 247.436523,45.9116202 247.583008,46.0825195 C247.729493,46.2534188 247.941079,46.3388672 248.217773,46.3388672 C248.380535,46.3388672 248.600259,46.2656257 248.876953,46.1191406 C249.153647,45.9726555 249.584958,45.6796897 250.170898,45.2402344 L250.219727,46.2900391 C248.706047,47.6735095 247.294115,48.7639934 245.983887,49.5615234 C244.673659,50.3590535 243.668623,50.7578125 242.96875,50.7578125 C242.561847,50.7578125 242.236329,50.6113296 241.992188,50.3183594 C241.748046,50.0253892 241.625977,49.6347681 241.625977,49.1464844 C241.625977,48.7558574 241.821287,47.9746152 242.211914,46.8027344 C242.602541,45.6308535 243.538404,43.1325061 245.019531,39.3076172 C245.898442,37.0452361 246.541339,35.1979238 246.948242,33.765625 C247.355145,32.3333262 247.558594,31.1940146 247.558594,30.3476562 C247.558594,29.8268203 247.448732,29.4158544 247.229004,29.1147461 C247.009276,28.8136378 246.671552,28.6061204 246.21582,28.4921875 L246.118164,28.0527344 Z M261.865234,28.0527344 C263.378914,27.1087192 264.567053,26.4047875 265.429688,25.940918 C266.292322,25.4770485 266.837564,25.2451172 267.06543,25.2451172 C267.342124,25.2451172 267.55371,25.3916001 267.700195,25.6845703 C267.84668,25.9775405 267.919922,26.4007134 267.919922,26.9541016 C267.919922,27.6214226 267.842611,28.3945269 267.687988,29.2734375 C267.533365,30.1523481 267.309572,31.1289009 267.016602,32.203125 L267.211914,32.3496094 C268.774422,29.5501162 270.048009,27.56039 271.032715,26.3803711 C272.01742,25.2003522 272.875973,24.6103516 273.608398,24.6103516 C274.112958,24.6103516 274.532062,24.8015931 274.865723,25.184082 C275.199383,25.5665709 275.366211,26.0589163 275.366211,26.6611328 C275.366211,27.5237673 275.113935,28.5654236 274.609375,29.7861328 C274.104815,31.006842 273.339849,32.4472573 272.314453,34.1074219 L271.75293,33.8388672 C271.964519,33.1715461 272.102864,32.7076836 272.167969,32.4472656 C272.233073,32.1868477 272.265625,31.9671233 272.265625,31.7880859 C272.265625,31.26725 272.159832,30.864422 271.948242,30.5795898 C271.736653,30.2947577 271.443687,30.1523438 271.069336,30.1523438 C270.402015,30.1523438 269.628911,30.6487581 268.75,31.6416016 C267.871089,32.6344451 267.057295,33.9527913 266.308594,35.5966797 C265.397131,37.5823667 264.636234,39.5720929 264.025879,41.565918 C263.415524,43.559743 263.110352,44.8170547 263.110352,45.3378906 C263.110352,45.6634131 263.183593,45.9116202 263.330078,46.0825195 C263.476563,46.2534188 263.68815,46.3388672 263.964844,46.3388672 C264.127605,46.3388672 264.347329,46.2656257 264.624023,46.1191406 C264.900718,45.9726555 265.332028,45.6796897 265.917969,45.2402344 L265.966797,46.2900391 C264.453117,47.6735095 263.041185,48.7639934 261.730957,49.5615234 C260.420729,50.3590535 259.415694,50.7578125 258.71582,50.7578125 C258.308917,50.7578125 257.9834,50.6113296 257.739258,50.3183594 C257.495116,50.0253892 257.373047,49.6347681 257.373047,49.1464844 C257.373047,48.7558574 257.568357,47.9746152 257.958984,46.8027344 C258.349611,45.6308535 259.285474,43.1325061 260.766602,39.3076172 C261.645512,37.0452361 262.288409,35.1979238 262.695312,33.765625 C263.102216,32.3333262 263.305664,31.1940146 263.305664,30.3476562 C263.305664,29.8268203 263.195802,29.4158544 262.976074,29.1147461 C262.756347,28.8136378 262.418622,28.6061204 261.962891,28.4921875 L261.865234,28.0527344 Z M281.298828,19.6542969 C281.933597,19.1171848 282.543942,18.5434601 283.129883,17.9331055 C283.715823,17.3227509 284.293617,16.6595088 284.863281,15.9433594 C285.742192,16.2200535 286.588538,16.4275709 287.402344,16.565918 C288.21615,16.704265 289.013668,16.7815754 289.794922,16.7978516 C289.33919,17.8883518 288.602707,18.7713182 287.585449,19.4467773 C286.568192,20.1222365 285.489915,20.4599609 284.350586,20.4599609 C283.813474,20.4599609 283.296715,20.3948574 282.800293,20.2646484 C282.303871,20.1344395 281.803388,19.930991 281.298828,19.6542969 Z M280.053711,27.4912109 C281.339525,26.9052705 282.584629,26.2867871 283.789062,25.6357422 C284.993496,24.9846973 285.620117,24.6591797 285.668945,24.6591797 C285.750326,24.6591797 285.807292,24.6713866 285.839844,24.6958008 C285.872396,24.720215 285.89681,24.7731116 285.913086,24.8544922 C285.913086,24.9195967 285.241706,26.3803568 283.898926,29.2368164 C282.556146,32.093276 281.306972,35.051417 280.151367,38.1113281 C279.158524,40.7317839 278.519695,42.5058547 278.234863,43.4335938 C277.950031,44.3613328 277.807617,45.0530576 277.807617,45.5087891 C277.807617,45.769207 277.868652,45.9889314 277.990723,46.1679688 C278.112794,46.3470061 278.271483,46.4446614 278.466797,46.4609375 C278.824872,46.4609375 279.260251,46.1516958 279.772949,45.5332031 C280.285647,44.9147104 280.851234,44.0195371 281.469727,42.8476562 L280.712891,46.4121094 C278.694651,47.9583411 277.152512,49.0610319 276.086426,49.7202148 C275.02034,50.3793978 274.259442,50.7089844 273.803711,50.7089844 C273.380532,50.7089844 273.034669,50.5177428 272.766113,50.1352539 C272.497557,49.752765 272.363281,49.2604197 272.363281,48.6582031 C272.363281,47.6490835 273.347972,44.7804598 275.317383,40.0522461 C277.286794,35.3240323 278.865554,31.1370625 280.053711,27.4912109 Z M290.869141,33.6923828 C291.129559,33.8063157 291.442869,33.895833 291.809082,33.9609375 C292.175295,34.026042 292.561847,34.0585938 292.96875,34.0585938 C293.082683,34.0585938 293.229166,34.0504558 293.408203,34.0341797 C293.58724,34.0179036 293.86393,33.9853518 294.238281,33.9365234 C295.019535,33.3180308 295.646156,32.618168 296.118164,31.8369141 C296.590172,31.0556602 296.826172,30.3395215 296.826172,29.6884766 C296.826172,29.216469 296.695965,28.81771 296.435547,28.4921875 C296.175129,28.166665 295.849611,28.0039062 295.458984,28.0039062 C295.328775,28.0039062 295.109051,28.0527339 294.799805,28.1503906 C294.750976,28.1666667 294.710287,28.1829426 294.677734,28.1992188 C293.798824,28.9316443 293.041995,29.7495072 292.407227,30.652832 C291.772458,31.5561569 291.259768,32.5693303 290.869141,33.6923828 Z M295.117188,41.3583984 L297.265625,41.2119141 C296.386714,43.6858848 294.881196,45.8953353 292.749023,47.840332 C290.616851,49.7853287 288.859056,50.7578125 287.475586,50.7578125 C286.433914,50.7578125 285.571292,50.285812 284.887695,49.3417969 C284.204098,48.3977817 283.862305,47.2015046 283.862305,45.7529297 C283.862305,43.4905486 284.391271,41.0369598 285.449219,38.3920898 C286.507167,35.7472198 287.898754,33.4157002 289.624023,31.3974609 C291.31674,29.4117739 293.127432,27.8330137 295.056152,26.6611328 C296.984873,25.489252 298.689771,24.9033203 300.170898,24.9033203 C300.740563,24.9033203 301.208494,25.0660791 301.574707,25.3916016 C301.94092,25.717124 302.124023,26.1402969 302.124023,26.6611328 C302.124023,27.4261106 301.770023,28.3456978 301.062012,29.4199219 C300.354,30.494146 299.422206,31.4869746 298.266602,32.3984375 C296.752922,33.6028706 295.271817,34.5428026 293.823242,35.2182617 C292.374667,35.8937208 291.056321,36.272135 289.868164,36.3535156 C289.477537,37.2812546 289.18864,38.2252556 289.001465,39.1855469 C288.814289,40.1458381 288.720703,41.1712185 288.720703,42.2617188 C288.720703,43.7102937 288.985186,44.8129845 289.51416,45.5698242 C290.043134,46.3266639 290.812169,46.7050781 291.821289,46.7050781 C292.000326,46.7050781 292.138671,46.7010092 292.236328,46.6928711 C292.333985,46.684733 292.423502,46.6725261 292.504883,46.65625 C293.090823,46.0865857 293.595375,45.3623091 294.018555,44.4833984 C294.441734,43.6044878 294.807941,42.5628315 295.117188,41.3583984 Z M313.500977,30.25 C313.126626,29.4199177 312.703453,28.7607446 312.231445,28.2724609 C311.759438,27.7841772 311.303713,27.5400391 310.864258,27.5400391 C310.359698,27.5400391 309.729008,28.0608672 308.972168,29.1025391 C308.215328,30.1442109 307.373052,31.6253159 306.445312,33.5458984 C305.452469,35.6617944 304.663089,37.6759344 304.077148,39.5883789 C303.491208,41.5008234 303.198242,43.0022732 303.198242,44.0927734 C303.198242,44.5159526 303.283691,44.8414702 303.45459,45.0693359 C303.625489,45.2972017 303.873696,45.4111328 304.199219,45.4111328 C305.224615,45.4111328 306.807444,43.905614 308.947754,40.8945312 C311.088064,37.8834485 313.037101,34.1725481 314.794922,29.7617188 L314.697266,29.5908203 L313.500977,30.25 Z M325.048828,13.2578125 C321.256491,22.9909341 318.558765,30.258114 316.955566,35.0595703 C315.352368,39.8610266 314.550781,43.0266851 314.550781,44.5566406 C314.550781,44.9309915 314.615885,45.2158193 314.746094,45.4111328 C314.876303,45.6064463 315.063475,45.7041016 315.307617,45.7041016 C315.535483,45.7041016 315.816242,45.6145842 316.149902,45.4355469 C316.483563,45.2565095 316.821287,45.0123713 317.163086,44.703125 L317.211914,45.7041016 C315.779615,47.217781 314.4572,48.3855753 313.244629,49.2075195 C312.032058,50.0294637 311.018884,50.4404297 310.205078,50.4404297 C309.798175,50.4404297 309.488933,50.3020847 309.277344,50.0253906 C309.065754,49.7486965 308.959961,49.3417996 308.959961,48.8046875 C308.959961,47.9583291 309.187823,46.6928795 309.643555,45.0083008 C310.099286,43.323722 310.750321,41.31772 311.59668,38.9902344 L311.401367,38.8925781 C309.073882,42.3919446 306.852224,45.158844 304.736328,47.1933594 C302.620432,49.2278748 300.944017,50.2451172 299.707031,50.2451172 C299.104815,50.2451172 298.653159,50.0457377 298.352051,49.6469727 C298.050943,49.2482076 297.900391,48.6500691 297.900391,47.8525391 C297.900391,45.8180237 298.474115,43.2911935 299.621582,40.2719727 C300.769049,37.2527518 302.213533,34.5631628 303.955078,32.203125 C305.533862,30.087229 307.434071,28.2724685 309.655762,26.7587891 C311.877453,25.2451096 313.541661,24.4882812 314.648438,24.4882812 C314.941408,24.4882812 315.222167,24.5818676 315.490723,24.769043 C315.759279,24.9562184 316.097003,25.3020808 316.503906,25.8066406 C316.69922,24.7486926 317.17122,23.0763461 317.919922,20.7895508 C318.668624,18.5027555 319.19759,16.7734434 319.506836,15.6015625 C320.36947,15.3736968 321.256506,15.068524 322.167969,14.6860352 C323.079432,14.3035463 324.039708,13.8274768 325.048828,13.2578125 Z" id="are-getting-married"></path>
            </g>
        </g>
    </g>
</svg>