<?xml version="1.0" encoding="utf-8"?>
<!-- Generator: Adobe Illustrator 21.1.0, SVG Export Plug-In . SVG Version: 6.00 Build 0)  -->
<svg version="1.1" id="Layer_1" xmlns="http://www.w3.org/2000/svg" xmlns:xlink="http://www.w3.org/1999/xlink" x="0px" y="0px"
	 viewBox="0 0 358 51" style="enable-background:new 0 0 358 51;" xml:space="preserve">
<style type="text/css">
	.st0{enable-background:new    ;}
	.st1{fill:#FFFFFF;}
</style>
<title>Group</title>
<desc>Created with Sketch.</desc>
<g id="Page-1">
	<g id="Desktop-HD" transform="translate(-542.000000, -565.000000)">
		<g id="Group" transform="translate(550.000000, 554.000000)">
			<g class="st0">
				<path class="st1" d="M19.9,13.6c1.1-0.4,2.1-0.7,3-1c0.9-0.3,1.7-0.7,2.6-1c-1,3-1.7,6.4-2.3,10.2c-0.6,3.7-1,7.9-1.3,12.6
					c0.5,0,1,0,1.6-0.1c0.6-0.1,1.3-0.1,2.2-0.3c-0.6,0.4-1.2,0.8-1.7,1.1c-0.6,0.3-1.1,0.6-1.7,0.9l-0.6,0.1
					c-0.1,1-0.1,1.9-0.2,2.7c0,0.8-0.1,1.5-0.1,2c0,1.2,0.1,2.1,0.3,2.5c0.2,0.5,0.5,0.7,0.9,0.7c0.4,0,0.9-0.2,1.4-0.7
					c0.5-0.5,1.1-1.2,1.7-2.1l0.2,1c-2.4,3-4.1,5-5.2,6.1S18.6,50,18,50c-0.5,0-0.9-0.3-1.2-0.9c-0.3-0.6-0.5-1.3-0.5-2.3
					c0-0.7,0.1-1.9,0.3-3.6c0.2-1.8,0.4-3.8,0.7-6.1c-0.5,0-1,0.1-1.5,0.1c-0.5,0-1,0-1.5,0c-0.6,0-1.2,0-1.9,0
					c-0.7,0-1.4-0.1-2.1-0.1C6.4,43.2,3.3,47.6,1,50.3s-4.3,4-5.8,4c-0.9,0-1.7-0.3-2.2-0.9C-7.6,52.8-7.9,52-7.9,51
					c0-1.6,0.5-3.4,1.5-5.3c1-1.9,2.4-3.9,4.3-6l1-0.1c-1.1,1.4-2,2.8-2.6,4c-0.6,1.3-0.9,2.3-0.9,3.3c0,0.7,0.2,1.2,0.5,1.6
					c0.3,0.4,0.8,0.6,1.4,0.6c1.2,0,2.6-0.9,4.4-2.6s4.1-4.9,7.2-9.4c-0.7,0-1.3-0.1-2-0.1c-0.7-0.1-1.3-0.1-2-0.2
					C5.9,36.1,7,35.6,8,35c1-0.6,2.1-1.2,3.1-1.8c2.8-4.6,4.9-8.6,6.4-12S19.8,15.3,19.9,13.6z M12.1,33.8c0.9,0.2,1.8,0.3,2.5,0.4
					c0.7,0.1,1.4,0.1,2,0.1h0.3c0,0,0,0,0.1,0c0.2,0,0.4,0,0.6,0c0.1-2,0.4-4.2,0.6-6.5c0.3-2.4,0.6-5.1,1-8.1
					c-0.9,2.2-2,4.5-3.2,6.9C14.8,29,13.5,31.4,12.1,33.8z"/>
				<path class="st1" d="M33.4,28.1c1.5-0.9,2.7-1.6,3.6-2.1c0.9-0.5,1.4-0.7,1.6-0.7c0.3,0,0.5,0.1,0.6,0.4s0.2,0.7,0.2,1.3
					c0,0.7-0.1,1.4-0.2,2.3c-0.2,0.9-0.4,1.9-0.7,2.9l0.2,0.1c1.6-2.8,2.8-4.8,3.8-6c1-1.2,1.8-1.8,2.6-1.8c0.5,0,0.9,0.2,1.3,0.6
					c0.3,0.4,0.5,0.9,0.5,1.5c0,0.9-0.3,1.9-0.8,3.1c-0.5,1.2-1.3,2.7-2.3,4.3l-0.6-0.3c0.2-0.7,0.3-1.1,0.4-1.4
					c0.1-0.3,0.1-0.5,0.1-0.7c0-0.5-0.1-0.9-0.3-1.2c-0.2-0.3-0.5-0.4-0.9-0.4c-0.7,0-1.4,0.5-2.3,1.5c-0.9,1-1.7,2.3-2.4,4
					c-0.9,2-1.7,4-2.3,6c-0.6,2-0.9,3.3-0.9,3.8c0,0.3,0.1,0.6,0.2,0.7c0.1,0.2,0.4,0.3,0.6,0.3c0.2,0,0.4-0.1,0.7-0.2
					c0.3-0.1,0.7-0.4,1.3-0.9l0,1c-1.5,1.4-2.9,2.5-4.2,3.3c-1.3,0.8-2.3,1.2-3,1.2c-0.4,0-0.7-0.1-1-0.4s-0.4-0.7-0.4-1.2
					c0-0.4,0.2-1.2,0.6-2.3s1.3-3.7,2.8-7.5c0.9-2.3,1.5-4.1,1.9-5.5c0.4-1.4,0.6-2.6,0.6-3.4c0-0.5-0.1-0.9-0.3-1.2
					c-0.2-0.3-0.6-0.5-1-0.6L33.4,28.1z"/>
				<path class="st1" d="M55.5,41.4l2.1-0.1c-0.9,2.5-2.4,4.7-4.5,6.6c-2.1,1.9-3.9,2.9-5.3,2.9c-1,0-1.9-0.5-2.6-1.4s-1-2.1-1-3.6
					c0-2.3,0.5-4.7,1.6-7.4c1.1-2.6,2.4-5,4.2-7c1.7-2,3.5-3.6,5.4-4.7s3.6-1.8,5.1-1.8c0.6,0,1,0.2,1.4,0.5
					c0.4,0.3,0.5,0.7,0.5,1.3c0,0.8-0.4,1.7-1.1,2.8s-1.6,2.1-2.8,3c-1.5,1.2-3,2.1-4.4,2.8c-1.4,0.7-2.8,1.1-4,1.1
					c-0.4,0.9-0.7,1.9-0.9,2.8c-0.2,1-0.3,2-0.3,3.1c0,1.4,0.3,2.6,0.8,3.3c0.5,0.8,1.3,1.1,2.3,1.1c0.2,0,0.3,0,0.4,0
					c0.1,0,0.2,0,0.3,0c0.6-0.6,1.1-1.3,1.5-2.2C54.9,43.6,55.2,42.6,55.5,41.4z M51.3,33.7c0.3,0.1,0.6,0.2,0.9,0.3
					c0.4,0.1,0.8,0.1,1.2,0.1c0.1,0,0.3,0,0.4,0c0.2,0,0.5,0,0.8-0.1c0.8-0.6,1.4-1.3,1.9-2.1c0.5-0.8,0.7-1.5,0.7-2.1
					c0-0.5-0.1-0.9-0.4-1.2c-0.3-0.3-0.6-0.5-1-0.5c-0.1,0-0.4,0-0.7,0.1c0,0-0.1,0-0.1,0c-0.9,0.7-1.6,1.6-2.3,2.5
					C52.2,31.6,51.7,32.6,51.3,33.7z"/>
				<path class="st1" d="M91.5,26.6c0.2-0.2,0.5-0.4,0.8-0.7c0.7-0.6,1.2-1,1.4-1c0.1,0,0.1,0,0.2,0.1c0,0.1,0.1,0.1,0.1,0.2
					c0,0.1-0.4,1.3-1.3,3.5c-0.9,2.2-1.7,4.5-2.6,6.7c-1,2.6-2.1,5.7-3.3,9.4c-1.2,3.7-2.1,6-2.5,6.7c-0.5,1-1.5,2.3-2.9,3.8
					c-1.4,1.5-3.1,3-5,4.4c-0.5,0.4-1.1,0.7-1.6,1c-0.5,0.2-1,0.4-1.3,0.4c-0.8,0-1.5-0.3-2.1-0.9c-0.6-0.6-0.9-1.3-0.9-2.1
					c0-0.9,0.3-1.7,0.8-2.6c0.6-0.8,1.6-1.9,3.3-3.3l0.6,0.2c-0.3,0.5-0.4,1-0.6,1.4c-0.1,0.4-0.2,0.8-0.2,1.1
					c0,0.8,0.2,1.4,0.6,1.9c0.4,0.5,0.9,0.8,1.6,0.9c0.8-0.5,1.8-2.1,3-4.8c1.2-2.7,2.4-6.3,3.7-10.7h-0.1c-2,2.5-3.8,4.5-5.4,5.9
					c-1.6,1.4-2.8,2.1-3.7,2.1c-0.6,0-1-0.3-1.2-0.8c-0.3-0.5-0.4-1.4-0.4-2.5c0-1.6,0.4-3.7,1.3-6.1c0.8-2.5,2-4.8,3.4-7.1
					c1.7-2.8,3.8-5.2,6-7.1c2.3-1.9,4.1-2.8,5.6-2.8c0.4,0,0.9,0.2,1.3,0.6C90.4,24.9,90.9,25.6,91.5,26.6z M87.4,29.4
					c-0.2-0.7-0.5-1.3-0.8-1.6c-0.3-0.4-0.7-0.5-1.1-0.5c-0.4,0-0.8,0.3-1.4,0.9c-0.6,0.6-1.2,1.4-1.8,2.4c-1.3,2.1-2.4,4.5-3.2,6.9
					c-0.8,2.5-1.3,4.4-1.3,5.9c0,0.5,0.1,0.9,0.2,1.1c0.2,0.3,0.4,0.4,0.7,0.4c1.2,0,2.7-1.4,4.5-4.2c1.8-2.8,3.4-6.3,4.7-10.5
					l1-1.3l0-0.3L87.4,29.4z"/>
				<path class="st1" d="M103,41.4l2.1-0.1c-0.9,2.5-2.4,4.7-4.5,6.6c-2.1,1.9-3.9,2.9-5.3,2.9c-1,0-1.9-0.5-2.6-1.4s-1-2.1-1-3.6
					c0-2.3,0.5-4.7,1.6-7.4c1.1-2.6,2.4-5,4.2-7c1.7-2,3.5-3.6,5.4-4.7s3.6-1.8,5.1-1.8c0.6,0,1,0.2,1.4,0.5
					c0.4,0.3,0.5,0.7,0.5,1.3c0,0.8-0.4,1.7-1.1,2.8s-1.6,2.1-2.8,3c-1.5,1.2-3,2.1-4.4,2.8c-1.4,0.7-2.8,1.1-4,1.1
					c-0.4,0.9-0.7,1.9-0.9,2.8c-0.2,1-0.3,2-0.3,3.1c0,1.4,0.3,2.6,0.8,3.3c0.5,0.8,1.3,1.1,2.3,1.1c0.2,0,0.3,0,0.4,0
					c0.1,0,0.2,0,0.3,0c0.6-0.6,1.1-1.3,1.5-2.2C102.3,43.6,102.7,42.6,103,41.4z M98.7,33.7c0.3,0.1,0.6,0.2,0.9,0.3
					c0.4,0.1,0.8,0.1,1.2,0.1c0.1,0,0.3,0,0.4,0c0.2,0,0.5,0,0.8-0.1c0.8-0.6,1.4-1.3,1.9-2.1c0.5-0.8,0.7-1.5,0.7-2.1
					c0-0.5-0.1-0.9-0.4-1.2c-0.3-0.3-0.6-0.5-1-0.5c-0.1,0-0.4,0-0.7,0.1c0,0-0.1,0-0.1,0c-0.9,0.7-1.6,1.6-2.3,2.5
					C99.6,31.6,99.1,32.6,98.7,33.7z"/>
				<path class="st1" d="M117.7,19.9c0.8-0.3,1.7-0.7,2.6-1.1c0.9-0.4,1.8-0.9,2.6-1.5c-0.4,1.2-0.8,2.4-1.3,3.8
					c-0.5,1.4-1.1,3-1.8,4.8h5.3l-3,2.2l-3.1,0c-0.8,2.6-1.9,5.7-3.3,9.3c-1.4,3.6-2.1,5.8-2.1,6.7c0,0.5,0.1,0.9,0.2,1.2
					c0.2,0.3,0.4,0.5,0.7,0.5c0.7-0.6,1.2-1.2,1.8-1.9c0.5-0.7,1-1.4,1.4-2.2l0.7,1.1c-1.7,2.5-3.2,4.4-4.7,5.8
					c-1.5,1.4-2.7,2.1-3.6,2.1c-0.6,0-1.1-0.3-1.5-0.9c-0.4-0.6-0.6-1.4-0.6-2.4c0-1.3,0.9-4.3,2.7-8.8c0.4-0.9,0.7-1.6,0.9-2.1
					c0.2-0.5,0.5-1.3,0.9-2.2c1.2-3,1.7-4.6,1.7-4.9c0-0.3-0.2-0.6-0.5-1c-0.3-0.3-0.8-0.7-1.5-1.1l1.9-1.4l1.9,0.1
					c0.2-1,0.5-2.2,1-3.6C117.3,21,117.6,20.2,117.7,19.9z"/>
				<path class="st1" d="M132,19.9c0.8-0.3,1.7-0.7,2.6-1.1c0.9-0.4,1.8-0.9,2.6-1.5c-0.4,1.2-0.8,2.4-1.3,3.8
					c-0.5,1.4-1.1,3-1.8,4.8h5.3l-3,2.2l-3.1,0c-0.8,2.6-1.9,5.7-3.3,9.3c-1.4,3.6-2.1,5.8-2.1,6.7c0,0.5,0.1,0.9,0.2,1.2
					c0.2,0.3,0.4,0.5,0.7,0.5c0.7-0.6,1.2-1.2,1.8-1.9c0.5-0.7,1-1.4,1.4-2.2l0.7,1.1c-1.7,2.5-3.2,4.4-4.7,5.8
					c-1.5,1.4-2.7,2.1-3.6,2.1c-0.6,0-1.1-0.3-1.5-0.9c-0.4-0.6-0.6-1.4-0.6-2.4c0-1.3,0.9-4.3,2.7-8.8c0.4-0.9,0.7-1.6,0.9-2.1
					c0.2-0.5,0.5-1.3,0.9-2.2c1.2-3,1.7-4.6,1.7-4.9c0-0.3-0.2-0.6-0.5-1c-0.3-0.3-0.8-0.7-1.5-1.1l1.9-1.4l1.9,0.1
					c0.2-1,0.5-2.2,1-3.6C131.7,21,131.9,20.2,132,19.9z"/>
				<path class="st1" d="M142.8,27.5c1.3-0.6,2.5-1.2,3.7-1.9c1.2-0.7,1.8-1,1.9-1c0.1,0,0.1,0,0.2,0c0,0,0.1,0.1,0.1,0.2
					c0,0.1-0.7,1.5-2,4.4c-1.3,2.9-2.6,5.8-3.7,8.9c-1,2.6-1.6,4.4-1.9,5.3c-0.3,0.9-0.4,1.6-0.4,2.1c0,0.3,0.1,0.5,0.2,0.7
					c0.1,0.2,0.3,0.3,0.5,0.3c0.4,0,0.8-0.3,1.3-0.9c0.5-0.6,1.1-1.5,1.7-2.7l-0.8,3.6c-2,1.5-3.6,2.6-4.6,3.3c-1.1,0.7-1.8,1-2.3,1
					c-0.4,0-0.8-0.2-1-0.6c-0.3-0.4-0.4-0.9-0.4-1.5c0-1,1-3.9,3-8.6C140,35.3,141.6,31.1,142.8,27.5z M144,19.7
					c0.6-0.5,1.2-1.1,1.8-1.7c0.6-0.6,1.2-1.3,1.7-2c0.9,0.3,1.7,0.5,2.5,0.6c0.8,0.1,1.6,0.2,2.4,0.2c-0.5,1.1-1.2,2-2.2,2.6
					c-1,0.7-2.1,1-3.2,1c-0.5,0-1.1-0.1-1.6-0.2C145,20.1,144.5,19.9,144,19.7z"/>
				<path class="st1" d="M150.7,49c-0.9,0.1-1.8,0.3-2.6,0.5c-0.8,0.2-1.6,0.5-2.3,0.8c0.7-2.1,1.8-4.9,3.2-8.5
					c3.1-8,4.6-13.3,4.6-15.7c0.9-0.2,1.9-0.6,3.1-1c1.1-0.4,1.8-0.7,2.1-0.7c0.2,0,0.3,0.1,0.4,0.2c0.1,0.1,0.1,0.3,0.1,0.5
					c0,0.8-0.8,3.2-2.5,7.2c-1.7,4-3,7.3-4,10.1l0.3,0.1c1.4-2.5,3.1-5,5-7.6c1.9-2.5,4.2-5.2,6.9-8c2.2-1.1,3.7-1.8,4.4-2
					c0.7-0.3,1.1-0.4,1.4-0.4c0.2,0,0.3,0.1,0.4,0.2c0.1,0.1,0.1,0.3,0.1,0.5c0,0.6-1,3-3,7.1l-0.4,0.9c-1.3,2.6-2.2,4.9-3,6.9
					c-0.7,2-1.1,3.4-1.1,4.2c0,0.5,0.1,0.9,0.3,1.2c0.2,0.3,0.5,0.4,0.9,0.4c0.2,0,0.4,0,0.6-0.1c0.2-0.1,0.4-0.1,0.7-0.2v0.8
					c-0.6,0.3-1.4,0.8-2.4,1.4c-2.8,1.7-4.5,2.5-4.8,2.5c-0.4,0-0.7-0.2-0.9-0.5c-0.2-0.3-0.4-0.7-0.4-1.3c0-0.7,0.3-1.7,0.8-3
					c0.5-1.4,1.4-3.4,2.7-6.2c0.3-0.7,0.8-1.6,1.3-2.7c1.2-2.5,1.8-4,1.8-4.5c0-0.2-0.1-0.4-0.2-0.6c-0.1-0.1-0.3-0.2-0.5-0.2
					c-1.1,0-2.9,1.7-5.5,5.2C155.5,39.7,153.1,44,150.7,49z"/>
				<path class="st1" d="M188,26.6c0.2-0.2,0.5-0.4,0.8-0.7c0.7-0.6,1.2-1,1.4-1c0.1,0,0.1,0,0.2,0.1c0,0.1,0.1,0.1,0.1,0.2
					c0,0.1-0.4,1.3-1.3,3.5c-0.9,2.2-1.7,4.5-2.6,6.7c-1,2.6-2.1,5.7-3.3,9.4c-1.2,3.7-2.1,6-2.5,6.7c-0.5,1-1.5,2.3-2.9,3.8
					c-1.4,1.5-3.1,3-5,4.4c-0.5,0.4-1.1,0.7-1.6,1c-0.5,0.2-1,0.4-1.3,0.4c-0.8,0-1.5-0.3-2.1-0.9c-0.6-0.6-0.9-1.3-0.9-2.1
					c0-0.9,0.3-1.7,0.8-2.6c0.6-0.8,1.6-1.9,3.3-3.3l0.6,0.2c-0.3,0.5-0.4,1-0.6,1.4c-0.1,0.4-0.2,0.8-0.2,1.1
					c0,0.8,0.2,1.4,0.6,1.9c0.4,0.5,0.9,0.8,1.6,0.9c0.8-0.5,1.8-2.1,3-4.8c1.2-2.7,2.4-6.3,3.7-10.7h-0.1c-2,2.5-3.8,4.5-5.4,5.9
					c-1.6,1.4-2.8,2.1-3.7,2.1c-0.6,0-1-0.3-1.2-0.8c-0.3-0.5-0.4-1.4-0.4-2.5c0-1.6,0.4-3.7,1.3-6.1c0.8-2.5,2-4.8,3.4-7.1
					c1.7-2.8,3.8-5.2,6-7.1c2.3-1.9,4.1-2.8,5.6-2.8c0.4,0,0.9,0.2,1.3,0.6C186.9,24.9,187.4,25.6,188,26.6z M183.9,29.4
					c-0.2-0.7-0.5-1.3-0.8-1.6c-0.3-0.4-0.7-0.5-1.1-0.5c-0.4,0-0.8,0.3-1.4,0.9c-0.6,0.6-1.2,1.4-1.8,2.4c-1.3,2.1-2.4,4.5-3.2,6.9
					c-0.8,2.5-1.3,4.4-1.3,5.9c0,0.5,0.1,0.9,0.2,1.1c0.2,0.3,0.4,0.4,0.7,0.4c1.2,0,2.7-1.4,4.5-4.2c1.8-2.8,3.4-6.3,4.7-10.5
					l1-1.3l0-0.3L183.9,29.4z"/>
				<path class="st1" d="M201.1,50.2c2.4-6.1,4.1-11.1,5.2-14.8s1.7-6.4,1.7-8v-0.3c0,0,0,0,0-0.1c0-0.2,0-0.3,0-0.4l0.9-0.4
					c2.4-1.2,3.8-1.8,4.1-1.8c0.2,0,0.4,0.1,0.5,0.2c0.1,0.1,0.1,0.3,0.1,0.6c0,1-0.8,3.5-2.3,7.6c-1.3,3.4-2.3,6.2-3,8.4l0.4,0.2
					c1.5-2.8,3.1-5.4,4.6-7.8c1.5-2.4,3.1-4.6,4.7-6.7c0.4-0.2,0.9-0.5,1.6-0.8c2.4-1.2,3.8-1.8,4.1-1.8c0.2,0,0.3,0.1,0.4,0.2
					c0.1,0.1,0.2,0.3,0.2,0.5c0,0.5-0.8,2.8-2.5,6.9c-1.7,4.1-3.1,8-4.4,11.7l0.4,0.2c0.5-0.8,1.2-1.9,2.2-3.4
					c4.2-6.6,7.5-11.3,9.9-14.1c0.5-0.3,1.1-0.6,1.9-1c1.4-0.8,2.2-1.2,2.4-1.2c0.2,0,0.3,0.1,0.5,0.2c0.1,0.1,0.2,0.3,0.2,0.5
					c0,1-1,3.8-2.9,8.5l-0.3,0.8c-1.1,2.6-1.9,4.7-2.5,6.4c-0.6,1.7-0.8,2.8-0.8,3.4c0,0.5,0.1,0.8,0.3,1c0.2,0.2,0.5,0.3,0.9,0.3
					c0.1,0,0.3,0,0.5-0.1s0.4-0.1,0.6-0.2l0.1,0.7c-2.3,1.6-4,2.7-5.1,3.4s-1.9,1-2.2,1c-0.3,0-0.6-0.1-0.8-0.4s-0.3-0.7-0.3-1.2
					c0-0.9,0.7-3.1,2.2-6.5c0.5-1,0.8-1.8,1-2.4c0.8-2,1.5-3.6,2-5.1c0.5-1.4,0.8-2.3,0.8-2.6c0-0.2,0-0.3-0.1-0.4
					c-0.1-0.1-0.2-0.2-0.3-0.2c-0.5,0-1.9,1.6-4.1,4.8c-2.2,3.2-4.7,7.3-7.6,12.2c-0.7,0.3-1.7,0.6-3,1.1c-1.3,0.5-2.1,0.8-2.5,0.9
					c1-2.7,2.2-6,3.8-10.1c1.9-4.9,2.8-7.8,2.8-8.6c0-0.2,0-0.4-0.1-0.4c-0.1-0.1-0.2-0.1-0.4-0.1c-0.7,0-2.1,1.7-4.2,5
					c-2.1,3.3-4.2,7.4-6.3,12.3c-0.9,0.3-1.8,0.6-2.7,1C203,49.5,202.1,49.9,201.1,50.2z"/>
				<path class="st1" d="M251.2,44.2l0.1,1.1c-1.3,1.5-2.6,2.7-4,3.6c-1.4,0.9-2.4,1.4-3.1,1.4c-0.4,0-0.7-0.2-1-0.5
					c-0.2-0.3-0.3-0.7-0.3-1.3c0-0.9,0.2-2,0.6-3.4c0.4-1.4,1-2.9,1.7-4.6l-0.2,0c-2.2,3-4.3,5.4-6.2,7.2s-3.5,2.7-4.5,2.7
					c-0.5,0-0.9-0.2-1.2-0.7c-0.3-0.4-0.4-1.1-0.4-2.1c0-1.5,0.3-3.3,0.9-5.2c0.6-1.9,1.4-3.9,2.6-6c1-1.8,2-3.5,3.1-4.9
					c1.1-1.4,2.2-2.6,3.4-3.5c1.2-1,2.5-1.8,4-2.5c1.5-0.7,2.5-1,3-1c0.4,0,0.9,0.2,1.4,0.6c0.5,0.4,0.9,0.9,1.2,1.5
					c0.5-0.2,0.9-0.5,1.5-0.8c0.5-0.4,0.8-0.5,0.9-0.5c0.1,0,0.2,0,0.2,0.1c0.1,0,0.1,0.1,0.1,0.2c0,0.1-0.4,1-1.1,2.6
					c-0.7,1.6-1.4,3-1.9,4.4c-1.3,3-2.2,5.5-2.8,7.6c-0.6,2-0.9,3.5-0.9,4.6c0,0.4,0.1,0.6,0.2,0.8c0.1,0.2,0.3,0.3,0.6,0.3
					c0.3,0,0.6-0.1,1-0.4C250.3,45.2,250.7,44.8,251.2,44.2z M248.5,30c-0.2-0.7-0.6-1.4-1.1-1.8c-0.5-0.5-1-0.7-1.5-0.7
					c-0.3,0-0.7,0.2-1.2,0.7c-0.5,0.5-1,1.1-1.6,2c-1.3,2-2.5,4.3-3.4,7c-0.9,2.7-1.4,4.8-1.4,6.4c0,0.6,0.1,1.1,0.2,1.4
					c0.2,0.3,0.4,0.5,0.7,0.5c0.6,0,1.5-0.7,2.8-2.1c1.3-1.4,2.5-3.2,3.7-5.3c0.3-0.6,0.9-1.8,1.7-3.8c0.8-2,1.6-3.6,2.3-4.9
					l-0.1-0.1L248.5,30z"/>
				<path class="st1" d="M258.2,28.1c1.5-0.9,2.7-1.6,3.6-2.1c0.9-0.5,1.4-0.7,1.6-0.7c0.3,0,0.5,0.1,0.6,0.4s0.2,0.7,0.2,1.3
					c0,0.7-0.1,1.4-0.2,2.3s-0.4,1.9-0.7,2.9l0.2,0.1c1.6-2.8,2.8-4.8,3.8-6c1-1.2,1.8-1.8,2.6-1.8c0.5,0,0.9,0.2,1.3,0.6
					c0.3,0.4,0.5,0.9,0.5,1.5c0,0.9-0.3,1.9-0.8,3.1c-0.5,1.2-1.3,2.7-2.3,4.3l-0.6-0.3c0.2-0.7,0.3-1.1,0.4-1.4
					c0.1-0.3,0.1-0.5,0.1-0.7c0-0.5-0.1-0.9-0.3-1.2c-0.2-0.3-0.5-0.4-0.9-0.4c-0.7,0-1.4,0.5-2.3,1.5c-0.9,1-1.7,2.3-2.4,4
					c-0.9,2-1.7,4-2.3,6c-0.6,2-0.9,3.3-0.9,3.8c0,0.3,0.1,0.6,0.2,0.7c0.1,0.2,0.4,0.3,0.6,0.3c0.2,0,0.4-0.1,0.7-0.2
					s0.7-0.4,1.3-0.9l0,1c-1.5,1.4-2.9,2.5-4.2,3.3s-2.3,1.2-3,1.2c-0.4,0-0.7-0.1-1-0.4s-0.4-0.7-0.4-1.2c0-0.4,0.2-1.2,0.6-2.3
					s1.3-3.7,2.8-7.5c0.9-2.3,1.5-4.1,1.9-5.5c0.4-1.4,0.6-2.6,0.6-3.4c0-0.5-0.1-0.9-0.3-1.2c-0.2-0.3-0.6-0.5-1-0.6L258.2,28.1z"
					/>
				<path class="st1" d="M273.9,28.1c1.5-0.9,2.7-1.6,3.6-2.1c0.9-0.5,1.4-0.7,1.6-0.7c0.3,0,0.5,0.1,0.6,0.4s0.2,0.7,0.2,1.3
					c0,0.7-0.1,1.4-0.2,2.3c-0.2,0.9-0.4,1.9-0.7,2.9l0.2,0.1c1.6-2.8,2.8-4.8,3.8-6c1-1.2,1.8-1.8,2.6-1.8c0.5,0,0.9,0.2,1.3,0.6
					c0.3,0.4,0.5,0.9,0.5,1.5c0,0.9-0.3,1.9-0.8,3.1s-1.3,2.7-2.3,4.3l-0.6-0.3c0.2-0.7,0.3-1.1,0.4-1.4c0.1-0.3,0.1-0.5,0.1-0.7
					c0-0.5-0.1-0.9-0.3-1.2c-0.2-0.3-0.5-0.4-0.9-0.4c-0.7,0-1.4,0.5-2.3,1.5c-0.9,1-1.7,2.3-2.4,4c-0.9,2-1.7,4-2.3,6
					c-0.6,2-0.9,3.3-0.9,3.8c0,0.3,0.1,0.6,0.2,0.7c0.1,0.2,0.4,0.3,0.6,0.3c0.2,0,0.4-0.1,0.7-0.2c0.3-0.1,0.7-0.4,1.3-0.9l0,1
					c-1.5,1.4-2.9,2.5-4.2,3.3c-1.3,0.8-2.3,1.2-3,1.2c-0.4,0-0.7-0.1-1-0.4s-0.4-0.7-0.4-1.2c0-0.4,0.2-1.2,0.6-2.3
					s1.3-3.7,2.8-7.5c0.9-2.3,1.5-4.1,1.9-5.5c0.4-1.4,0.6-2.6,0.6-3.4c0-0.5-0.1-0.9-0.3-1.2c-0.2-0.3-0.6-0.5-1-0.6L273.9,28.1z"
					/>
				<path class="st1" d="M292.1,27.5c1.3-0.6,2.5-1.2,3.7-1.9c1.2-0.7,1.8-1,1.9-1c0.1,0,0.1,0,0.2,0c0,0,0.1,0.1,0.1,0.2
					c0,0.1-0.7,1.5-2,4.4c-1.3,2.9-2.6,5.8-3.7,8.9c-1,2.6-1.6,4.4-1.9,5.3c-0.3,0.9-0.4,1.6-0.4,2.1c0,0.3,0.1,0.5,0.2,0.7
					c0.1,0.2,0.3,0.3,0.5,0.3c0.4,0,0.8-0.3,1.3-0.9c0.5-0.6,1.1-1.5,1.7-2.7l-0.8,3.6c-2,1.5-3.6,2.6-4.6,3.3c-1.1,0.7-1.8,1-2.3,1
					c-0.4,0-0.8-0.2-1-0.6c-0.3-0.4-0.4-0.9-0.4-1.5c0-1,1-3.9,3-8.6C289.3,35.3,290.9,31.1,292.1,27.5z M293.3,19.7
					c0.6-0.5,1.2-1.1,1.8-1.7c0.6-0.6,1.2-1.3,1.7-2c0.9,0.3,1.7,0.5,2.5,0.6c0.8,0.1,1.6,0.2,2.4,0.2c-0.5,1.1-1.2,2-2.2,2.6
					c-1,0.7-2.1,1-3.2,1c-0.5,0-1.1-0.1-1.6-0.2C294.3,20.1,293.8,19.9,293.3,19.7z"/>
				<path class="st1" d="M307.2,41.4l2.1-0.1c-0.9,2.5-2.4,4.7-4.5,6.6c-2.1,1.9-3.9,2.9-5.3,2.9c-1,0-1.9-0.5-2.6-1.4s-1-2.1-1-3.6
					c0-2.3,0.5-4.7,1.6-7.4c1.1-2.6,2.4-5,4.2-7c1.7-2,3.5-3.6,5.4-4.7c1.9-1.2,3.6-1.8,5.1-1.8c0.6,0,1,0.2,1.4,0.5
					c0.4,0.3,0.5,0.7,0.5,1.3c0,0.8-0.4,1.7-1.1,2.8c-0.7,1.1-1.6,2.1-2.8,3c-1.5,1.2-3,2.1-4.4,2.8c-1.4,0.7-2.8,1.1-4,1.1
					c-0.4,0.9-0.7,1.9-0.9,2.8c-0.2,1-0.3,2-0.3,3.1c0,1.4,0.3,2.6,0.8,3.3c0.5,0.8,1.3,1.1,2.3,1.1c0.2,0,0.3,0,0.4,0
					c0.1,0,0.2,0,0.3,0c0.6-0.6,1.1-1.3,1.5-2.2C306.5,43.6,306.8,42.6,307.2,41.4z M302.9,33.7c0.3,0.1,0.6,0.2,0.9,0.3
					c0.4,0.1,0.8,0.1,1.2,0.1c0.1,0,0.3,0,0.4,0c0.2,0,0.5,0,0.8-0.1c0.8-0.6,1.4-1.3,1.9-2.1c0.5-0.8,0.7-1.5,0.7-2.1
					c0-0.5-0.1-0.9-0.4-1.2c-0.3-0.3-0.6-0.5-1-0.5c-0.1,0-0.4,0-0.7,0.1c0,0-0.1,0-0.1,0c-0.9,0.7-1.6,1.6-2.3,2.5
					C303.8,31.6,303.3,32.6,302.9,33.7z"/>
				<path class="st1" d="M337.1,13.3c-3.8,9.7-6.5,17-8.1,21.8c-1.6,4.8-2.4,8-2.4,9.5c0,0.4,0.1,0.7,0.2,0.9s0.3,0.3,0.6,0.3
					c0.2,0,0.5-0.1,0.8-0.3c0.3-0.2,0.7-0.4,1-0.7l0,1c-1.4,1.5-2.8,2.7-4,3.5c-1.2,0.8-2.2,1.2-3,1.2c-0.4,0-0.7-0.1-0.9-0.4
					c-0.2-0.3-0.3-0.7-0.3-1.2c0-0.8,0.2-2.1,0.7-3.8c0.5-1.7,1.1-3.7,2-6l-0.2-0.1c-2.3,3.5-4.5,6.3-6.7,8.3s-3.8,3.1-5,3.1
					c-0.6,0-1.1-0.2-1.4-0.6c-0.3-0.4-0.5-1-0.5-1.8c0-2,0.6-4.6,1.7-7.6c1.1-3,2.6-5.7,4.3-8.1c1.6-2.1,3.5-3.9,5.7-5.4
					c2.2-1.5,3.9-2.3,5-2.3c0.3,0,0.6,0.1,0.8,0.3c0.3,0.2,0.6,0.5,1,1c0.2-1.1,0.7-2.7,1.4-5c0.7-2.3,1.3-4,1.6-5.2
					c0.9-0.2,1.8-0.5,2.7-0.9C335.1,14.3,336.1,13.8,337.1,13.3z M325.5,30.2c-0.4-0.8-0.8-1.5-1.3-2c-0.5-0.5-0.9-0.7-1.4-0.7
					c-0.5,0-1.1,0.5-1.9,1.6c-0.8,1-1.6,2.5-2.5,4.4c-1,2.1-1.8,4.1-2.4,6c-0.6,1.9-0.9,3.4-0.9,4.5c0,0.4,0.1,0.7,0.3,1
					c0.2,0.2,0.4,0.3,0.7,0.3c1,0,2.6-1.5,4.7-4.5c2.1-3,4.1-6.7,5.8-11.1l-0.1-0.2L325.5,30.2z"/>
				<path class="st1" d="M333.9,47.1l4.9-2.8c0.7,0.8,1.2,1.5,1.7,2c0.5,0.5,0.9,1.1,1.4,1.5l-4.5,2.6c-0.7-0.5-1.3-1.1-1.9-1.6
					C334.9,48.3,334.4,47.7,333.9,47.1z M338.4,41l7.3-22l5.2-1.2l-9.8,22.2L338.4,41z"/>
			</g>
		</g>
	</g>
</g>
</svg>
