<?xml version="1.0" encoding="utf-8"?>
<!-- Generator: Adobe Illustrator 21.1.0, SVG Export Plug-In . SVG Version: 6.00 Build 0)  -->
<svg version="1.1" id="Layer_1" xmlns="http://www.w3.org/2000/svg" xmlns:xlink="http://www.w3.org/1999/xlink" x="0px" y="0px"
	 viewBox="0 0 607 90" style="enable-background:new 0 0 607 90;" xml:space="preserve">
<style type="text/css">
	.st0{enable-background:new    ;}
	.st1{fill:#FFFFFF;}
</style>
<title>Wonja &amp; Daniel</title>
<desc>Created with Sketch.</desc>
<g id="Page-1">
	<g id="Desktop-HD" transform="translate(-416.000000, -437.000000)">
		<g id="Wonja-_x26_-Daniel" transform="translate(416.000000, 408.000000)">
			<g class="st0">
				<path class="st1" d="M35.9,63c1.4-4.3,2.5-7.9,3.4-10.5c0.8-2.7,1.5-4.9,2.1-6.8l5.8-0.3c-1.8,4.6-3.5,9-5.1,13.2
					c-1.6,4.2-2.9,7.9-4.1,11.3l7.7,23.2c3-8.8,5.8-17.1,8.4-25.1c2.5-8,4.8-15.4,6.7-22.3l5.6-0.3c-6,17-10.6,30.4-13.9,40.1
					c-3.2,9.8-4.8,15.2-4.8,16.3v0.2l-7.8,0.4c-0.6-2.2-1.4-4.9-2.4-8.3c-1-3.3-2.4-7.9-4.2-13.7c-2.8,7.6-4.7,12.8-5.7,15.8
					c-1,3-1.5,4.9-1.6,5.8l-7.6,0.4c-3.2-11-6.4-21.3-9.4-30.8C5.8,62,3,53.7,0.4,46.5L9.2,45c2.9,10.6,5.7,19.9,8.1,27.9
					c2.5,8,4.8,14.9,6.9,20.6c0.8-1.9,1.7-4.3,2.7-7.3c1-3,2.4-7,4.1-12.2c-1-3.4-2.3-7.4-3.8-12c-1.5-4.6-3.4-9.7-5.4-15.4l8.8-1.5
					c1,3.6,1.9,6.9,2.8,9.8S35.1,60.4,35.9,63z"/>
				<path class="st1" d="M91.7,103.5c-6.9,0-12.6-2.4-17-7.3c-4.4-4.9-6.6-11.2-6.6-18.9c0-5.7,1-10.6,3.1-14.8s5.5-8.3,10.2-12.2
					c2.5-2.1,5-3.6,7.4-4.6c2.4-1,4.9-1.5,7.4-1.5c2.6,0,5.1,0.4,7.5,1.3c2.4,0.8,4.5,2.1,6.4,3.6c3.2,2.7,5.6,6,7.2,9.9
					c1.7,3.9,2.5,8.1,2.5,12.7c0,4.3-0.8,8.4-2.5,12.3c-1.6,3.8-4,7.2-7.1,10.1c-3.6,3.4-6.9,5.8-9.8,7.3S94.6,103.5,91.7,103.5z
					 M97.4,96.1c2.7,0,5-0.4,7.1-1.1c2-0.7,3.4-1.7,4.1-2.8c1.1-1.9,2-4.1,2.6-6.6c0.6-2.5,0.9-5.1,0.9-7.9c0-7.9-2-14.2-5.9-19
					c-3.9-4.8-9.1-7.1-15.6-7.1c-2.6,0-4.9,0.4-7,1.1c-2.1,0.7-3.5,1.6-4.2,2.7c-1.3,1.9-2.3,4.4-3.1,7.3c-0.8,3-1.2,6-1.2,9.1
					c0,7,2.1,12.8,6.3,17.4c4.2,4.6,9.5,6.9,15.8,6.9H97.4z"/>
				<path class="st1" d="M133.2,58.6v13.8c0,1.8,0,5.4,0.1,10.7c0.1,5.3,0.2,11.6,0.4,18.8l-5.7,0.4c0.2-8.5,0.3-15.3,0.4-20.6
					c0.1-5.3,0.1-9,0.1-11.1V52.2l-3.8-4.9l8.4-3.1c2.2,3.2,4.7,6.9,7.6,11.1c2.9,4.2,6.1,8.8,9.6,13.8L162.9,87V57
					c0-1.8,0-3.7,0-5.6c0-1.9-0.1-4-0.1-6.1l5-0.5c-0.1,1.9-0.1,3.7-0.1,5.4c0,1.7,0,3.4,0,5v35.2c0,1.2,0.1,2.7,0.2,4.5
					c0.2,1.8,0.4,3.9,0.7,6.1l-5.1,1.6c-2.6-4.2-6.6-10.3-12.2-18.2l-0.9-1.4L133.2,58.6z"/>
				<path class="st1" d="M174.5,98.8l5.4-5.8c1.3,1.6,2.6,2.8,4,3.6c1.4,0.8,2.8,1.2,4.3,1.3c0.7-1.2,1.2-2.7,1.4-4.5
					c0.3-1.8,0.4-4.9,0.4-9.2c0-10.3,0-18.4-0.1-24.1c-0.1-5.7-0.2-10.5-0.4-14.4l9.8-0.3c-0.2,4.5-0.3,8.8-0.4,13.1
					c-0.1,4.3-0.1,8.4-0.1,12.3c0,1,0,3.2,0,6.6c0,3.4,0,6.2,0,8.5c0,2.6-0.3,4.5-0.8,5.9s-1.5,2.7-3,3.9c-2.7,2.4-5.3,4.3-7.7,5.7
					c-2.4,1.4-4.1,2.1-5.2,2.1c-1.3,0-2.6-0.4-3.8-1.1S175.8,100.4,174.5,98.8z"/>
				<path class="st1" d="M204.1,102.5c2.4-6.3,4.5-11.9,6.2-16.6c1.8-4.8,2.9-8,3.5-9.6l8.4-24.9l-2.3-4.8l8.6-2.3
					c0.8,2.1,1.6,4.5,2.6,7c1,2.5,2.4,6.3,4.4,11.4l7.9,20.5c0.9,2.5,2,5.2,3.3,8.2c1.2,3,2.6,6.2,4.1,9.8L242,103l-7.1-19.8h-18.6
					l-6.1,18.9L204.1,102.5z M218,77.7h15l-8.1-21L218,77.7z"/>
			</g>
			<g class="st0">
				<path class="st1" d="M376.8,102h-7.3c0.2-3.6,0.3-7.6,0.4-11.9c0.1-4.4,0.1-9.7,0.1-16.1c0-6.3,0-11.7-0.1-16.1
					c-0.1-4.4-0.2-8.5-0.4-12.2c0.4,0,0.9,0,1.4,0.1c0.5,0,1.3,0,2.4,0c1.8,0,4.2-0.1,7.4-0.2c3.2-0.1,5.5-0.2,6.9-0.2
					c8.7,0,15.5,2.1,20.4,6.3c4.9,4.2,7.3,10,7.3,17.5c0,5.3-1.1,10.2-3.2,14.7c-2.1,4.5-5.4,8.8-9.9,12.8c-2,1.8-4.4,3.2-7.1,4.2
					c-2.8,1-5.7,1.5-8.7,1.5c-0.7,0-2.1-0.1-4.2-0.2C380.1,102.1,378.3,102,376.8,102z M378.7,96.1c1.6,0.4,3.1,0.6,4.6,0.8
					c1.4,0.2,2.8,0.3,4.1,0.3c7.2,0,12.4-1.5,15.6-4.5c3.3-3,4.9-7.8,4.9-14.5c0-9-2.4-15.9-7.1-20.9c-4.7-5-11.3-7.4-19.8-7.4
					c-0.6,0-1.1,0-1.4,0c-0.3,0-0.6,0-0.9,0.1c-0.1,6.5-0.1,11.4-0.1,14.7c0,3.3,0,6.3,0,9c0,2.9,0,6,0,9.3
					C378.6,86.3,378.6,90.7,378.7,96.1z"/>
				<path class="st1" d="M417.7,102.5c2.4-6.3,4.5-11.9,6.2-16.6c1.8-4.8,2.9-8,3.5-9.6l8.4-24.9l-2.3-4.8l8.6-2.3
					c0.8,2.1,1.6,4.5,2.6,7c1,2.5,2.4,6.3,4.4,11.4l7.9,20.5c0.9,2.5,2,5.2,3.3,8.2c1.2,3,2.6,6.2,4.1,9.8l-8.9,1.9l-7.1-19.8h-18.6
					l-6.1,18.9L417.7,102.5z M431.5,77.7h15l-8.1-21L431.5,77.7z"/>
				<path class="st1" d="M475.3,58.6v13.8c0,1.8,0,5.4,0.1,10.7c0.1,5.3,0.2,11.6,0.4,18.8l-5.7,0.4c0.2-8.5,0.3-15.3,0.4-20.6
					c0.1-5.3,0.1-9,0.1-11.1V52.2l-3.8-4.9l8.4-3.1c2.2,3.2,4.7,6.9,7.6,11.1c2.9,4.2,6.1,8.8,9.6,13.8L505,87V57c0-1.8,0-3.7,0-5.6
					c0-1.9-0.1-4-0.1-6.1l5-0.5c-0.1,1.9-0.1,3.7-0.1,5.4c0,1.7,0,3.4,0,5v35.2c0,1.2,0.1,2.7,0.2,4.5c0.2,1.8,0.4,3.9,0.7,6.1
					l-5.1,1.6c-2.6-4.2-6.6-10.3-12.2-18.2l-0.9-1.4L475.3,58.6z"/>
				<path class="st1" d="M531.3,45.4c-0.2,4.1-0.3,8.4-0.4,13.1c-0.1,4.7-0.1,9.7-0.1,15.2s0,10.5,0.1,15.2c0.1,4.7,0.2,9,0.4,13.1
					l-9.8,0.4c0.2-4.1,0.3-8.6,0.4-13.3c0.1-4.7,0.1-9.7,0.1-15.1c0-5.3,0-10.4-0.1-15c-0.1-4.7-0.2-9.1-0.4-13.3L531.3,45.4z"/>
				<path class="st1" d="M540.9,102c0.2-3.6,0.3-7.6,0.4-11.9c0.1-4.4,0.1-9.7,0.1-16.1c0-6.3,0-11.7-0.1-16.1
					c-0.1-4.4-0.2-8.5-0.4-12.2c6.2,0,11.7,0,16.2-0.1c4.6-0.1,8.6-0.1,12.1-0.2l-2.6,5.7c-0.9-0.1-2-0.2-3.2-0.2
					c-1.2-0.1-3.2-0.1-6-0.1l-7.3,0c-0.1,0.3-0.1,0.8-0.1,1.4c0,0.6,0,1.8,0,3.5v5.7v9.4h3.8c2.8,0,5.4,0,7.9-0.1
					c2.5,0,4.9-0.1,7.2-0.1l-2.6,5.4c-1.4-0.1-2.6-0.1-3.7-0.2c-1.1,0-2.1-0.1-3.1-0.1h-9.5v15c0,2,0,3.4,0,4.2
					c0,0.8,0.1,1.4,0.1,1.8c0.6,0.1,1.2,0.1,1.8,0.1c0.6,0,1.5,0,2.6,0h3.8c3.4,0,5.9,0,7.4-0.1c1.5-0.1,2.9-0.2,4.1-0.3l-2.7,6.1
					c-2.3-0.1-5.1-0.2-8.2-0.3c-3.2-0.1-6.7-0.1-10.5-0.1H540.9z"/>
				<path class="st1" d="M577.7,102c0.2-4,0.3-8.4,0.4-13c0.1-4.6,0.1-9.6,0.1-15c0-5.3,0-10.4-0.1-15c-0.1-4.7-0.2-9.1-0.4-13.3
					l9.8-0.3c-0.2,4.2-0.3,8.7-0.4,13.4c-0.1,4.7-0.1,9.7-0.1,14.9c0,3.9,0.1,10.6,0.2,20c0,1.3,0.1,2.3,0.1,2.9h4.9
					c3.2,0,6,0,8.3-0.1c2.3-0.1,4.4-0.2,6.3-0.3c-0.4,0.8-0.8,1.7-1.2,2.6c-0.4,1-0.8,2.1-1.2,3.5c-2.5-0.1-4.7-0.2-6.5-0.3
					c-1.9-0.1-3.6-0.1-5.1-0.1H577.7z"/>
			</g>
			<g class="st0">
				<path class="st1" d="M334.8,81.4l-5.3,8.8h-3.9c0.8,0.7,1.4,1.6,1.8,2.8s0.6,2.6,0.6,4.3c0,2.4-0.7,5-2.2,7.7
					c-1.4,2.8-3.4,5.3-6,7.6c-2,1.8-4.3,3.1-7,4.1s-5.6,1.5-8.6,1.5c-6.3,0-11.8-2.3-16.5-6.9c-4.6-4.6-7-10-7-16.4
					c0-5.4,1.6-10.3,5-14.8c3.3-4.5,8.1-8.5,14.4-11.8c-4.7-1.6-8.3-3.6-10.7-6.2c-2.4-2.6-3.6-5.7-3.6-9.2c0-2.7,1.4-6.5,4.3-11.3
					c0.4-0.6,0.6-1.1,0.9-1.5c1.7-2.9,4.7-5.4,9-7.6c4.3-2.1,8.5-3.2,12.7-3.2c2.4,0,4.8,0.4,7,1.2c2.2,0.8,4.3,2,6.3,3.5l-8.4,10.7
					c-2-1.9-4.4-3.4-7.1-4.4s-5.8-1.5-9.1-1.5c-2.5,0-4.1,0.3-5,1c-0.9,0.6-1.3,1.8-1.3,3.6c0,4.8,2.5,8.6,7.6,11.4
					c5.1,2.8,12.5,4.6,22.1,5.2l-7,10.9c-0.2,0-0.4,0-0.9-0.1c-2.4-0.2-4.4-0.3-6-0.5c-7,0.9-12.2,2.5-15.4,5
					c-3.3,2.5-4.9,6-4.9,10.5c0,6.3,2.2,11.5,6.7,15.6c4.4,4,10.1,6.1,17.1,6.1c2.7,0,4.6-0.3,5.6-0.8c1-0.6,1.5-1.6,1.5-3.3
					c0-3.9-1.6-7.1-4.8-9.5c-3.2-2.4-7.5-3.7-12.8-3.7c-1.1,0-2,0-2.6,0.1c-0.6,0-1.1,0.1-1.6,0.2l5.9-8.9H334.8z"/>
			</g>
		</g>
	</g>
</g>
</svg>
