<?xml version="1.0" encoding="UTF-8" standalone="no"?>
<svg width="120px" height="104px" viewBox="0 0 120 104" version="1.1" xmlns="http://www.w3.org/2000/svg" xmlns:xlink="http://www.w3.org/1999/xlink">
    <!-- Generator: Sketch 49.3 (51167) - http://www.bohemiancoding.com/sketch -->
    <title>Rings</title>
    <desc>Created with Sketch.</desc>
    <defs></defs>
    <g id="Page-1" stroke="none" stroke-width="1" fill="none" fill-rule="evenodd">
        <g id="Desktop-HD" transform="translate(-660.000000, -304.000000)" fill="#FFFFFF">
            <g id="Rings" transform="translate(660.000000, 304.000000)">
                <path d="M69.6888645,71.4288333 C69.6888645,71.4288333 64.6569935,69.5100333 62.2264129,67.9465667 C47.4966065,58.4701 43.1692516,38.7409 52.5664129,23.8797667 C61.9635742,9.02136667 81.5220258,4.65896667 96.2518323,14.1381667 C110.984348,23.6146333 115.306284,43.3438333 105.911832,58.2049667 C100.042671,67.4873667 90.2065419,72.6725 80.0615097,72.9485667 C79.0941548,78.4699 77.3762194,81.4465 77.3762194,81.4465 C91.2362194,82.0833667 105.042026,75.4359 113.040994,62.7887667 C124.947316,43.9588333 119.465639,18.9570333 100.798671,6.94676667 C82.1317032,-5.0635 57.3462839,0.4633 45.4399613,19.2932333 C33.5336387,38.1231667 39.0126065,63.1249667 57.6795742,75.1352333 C60.4217677,76.8982333 63.2940258,78.2840333 66.2367355,79.3063 C66.2367355,79.3063 68.6646065,75.0614333 69.6888645,71.4288333" id="Fill-1"></path>
                <path d="M49.46859,33.1673067 C49.46859,33.1673067 54.48249,35.0861067 56.90439,36.6495733 C71.58159,46.12604 75.89349,65.85524 66.52989,80.7163733 C57.16629,95.5747733 37.67769,99.9371733 23.00049,90.4579733 C8.32059,80.9815067 4.01409,61.2523067 13.37499,46.3911733 C19.22319,37.1087733 29.02419,31.92364 39.13569,31.6475733 C40.09689,26.12624 41.80869,23.14964 41.80869,23.14964 C27.99819,22.5127733 14.24169,29.16024 6.27399,41.8073733 C-5.59251,60.6373067 -0.13041,85.6391067 18.46989,97.6493733 C37.07019,109.65964 61.76709,104.13284 73.63089,85.3029067 C85.49739,66.4729733 80.03529,41.4711733 61.43499,29.4609067 C58.70529,27.6979067 55.84329,26.3121067 52.90839,25.28984 C52.90839,25.28984 50.48919,29.5347067 49.46859,33.1673067" id="Fill-4"></path>
            </g>
        </g>
    </g>
</svg>