<?xml version="1.0" encoding="UTF-8" standalone="no"?>
<svg width="158px" height="105px" viewBox="0 0 158 105" version="1.1" xmlns="http://www.w3.org/2000/svg" xmlns:xlink="http://www.w3.org/1999/xlink">
    <!-- Generator: Sketch 49.3 (51167) - http://www.bohemiancoding.com/sketch -->
    <title>Shide 2</title>
    <desc>Created with Sketch.</desc>
    <defs></defs>
    <g id="Page-1" stroke="none" stroke-width="1" fill="none" fill-rule="evenodd">
        <g id="Desktop-HD" transform="translate(-926.000000, -564.000000)" fill="#F26660">
            <g id="Shide-2" transform="translate(926.000000, 564.000000)">
                <path d="M0,0 L16.0518346,0 C16.0518346,0 20.5257412,44.2469677 35,69.0641846 L18.1569125,75 C18.1569125,75 1.05253891,44.7852089 0,0 Z" id="Stroke-1"></path>
                <path d="M25,39.1715533 L39.556252,36 C39.556252,36 51.5492339,67.02932 72,87.1391142 L56.6103075,96 C56.6103075,96 36.655577,78.9943855 25,39.1715533 Z" id="Stroke-3"></path>
                <path d="M58,66.4738189 L71.8199668,61 C71.8199668,61 84.7023476,78.3596114 111,92.2493018 L95.1666113,104 C95.1666113,104 71.2845625,88.9094717 58,66.4738189 Z" id="Stroke-5"></path>
                <path d="M95,80.6746552 L108.929873,72 C108.929873,72 130.358918,87.9416686 158,93.952747 L143.841524,105 C143.841524,105 126.942297,102.821388 95,80.6746552 Z" id="Stroke-7"></path>
            </g>
        </g>
    </g>
</svg>
