<?xml version="1.0" encoding="UTF-8" standalone="no"?>
<svg width="166px" height="135px" viewBox="0 0 166 135" version="1.1" xmlns="http://www.w3.org/2000/svg" xmlns:xlink="http://www.w3.org/1999/xlink">
    <!-- Generator: Sketch 49.3 (51167) - http://www.bohemiancoding.com/sketch -->
    <title>Shide 1</title>
    <desc>Created with Sketch.</desc>
    <defs></defs>
    <g id="Page-1" stroke="none" stroke-width="1" fill="none" fill-rule="evenodd">
        <g id="Desktop-HD" transform="translate(-355.000000, -560.000000)" fill="#FFFFFF">
            <g id="Shide-1" transform="translate(355.000000, 560.000000)">
                <path d="M0.634614775,128.911421 L21.0930612,134.977701 C21.0930612,134.977701 29.0834722,110.762486 47.0466481,82.5215674 L28.9198934,80.71111 C28.9198934,80.71111 14.2920626,97.1189005 0.634614775,128.911421 Z" id="Stroke-9"></path>
                <path d="M35.9514532,105.394705 L55.896983,109.977686 C55.896983,109.977686 66.374347,84.0102361 80.8857318,61.4308096 L61.9383104,60.9677983 C61.9383104,60.9677983 53.2381335,73.4136536 35.9514532,105.394705 Z" id="Stroke-11"></path>
                <path d="M70.0343347,83.2365261 L90.6452699,85.8232899 C90.6452699,85.8232899 102.034794,60.7818631 115.439942,41.2244866 L96.5396536,41.9009822 C96.5396536,41.9009822 84.8534696,55.2978128 70.0343347,83.2365261 Z" id="Stroke-13"></path>
                <path d="M141.833095,4.01392024 C141.833095,4.01392024 129.803118,20.7100531 105.58513,60.1159211 L128.117424,59.2508939 C128.117424,59.2508939 146.829181,24.6248555 165.790465,0.50390625 L141.833095,4.01392024 Z" id="Stroke-15"></path>
            </g>
        </g>
    </g>
</svg>